<?xml version="1.0" encoding="utf-8"?>
<!-- Generator: Adobe Illustrator 23.0.2, SVG Export Plug-In . SVG Version: 6.00 Build 0)  -->
<svg version="1.1" id="Layer_1" xmlns="http://www.w3.org/2000/svg" xmlns:xlink="http://www.w3.org/1999/xlink" x="0px" y="0px"
	 viewBox="0 0 180 180" style="enable-background:new 0 0 180 180;" xml:space="preserve">
<style type="text/css">
	.st0{fill:#0F597A;}
	.st1{fill:#0D415E;}
	.st2{fill:#0E91AF;}
	.st3{fill:#00233F;}
	.st4{fill:#057091;}
	.st5{fill:#1AB9D3;}
	.st6{fill:#0A3856;}
	.st7{fill:#E29524;}
	.st8{fill:#E07127;}
	.st9{fill:#39B54A;}
	.st10{fill:url(#SVGID_1_);}
</style>
<g>
	<path class="st0" d="M148.23,154.54L148.23,154.54c9.87-5.97,18.77-12.22,18.77-23.08c0.24-18.74-15.64-22.81-20.45-38.83v-0.54
		v0.54L148.23,154.54z"/>
	<path class="st1" d="M151.84,153.73L151.84,153.73c0.96-13.03,0.72-24.17-7.22-30.14c-13.96-10.32-24.78,1.9-40.18-0.54v0.27
		L151.84,153.73z"/>
	<path class="st0" d="M76.53,80.41c4.81,4.62,14.2-0.54-8.9,31.5c-23.1,32.04-45.72,54.31-50.53,49.7
		c-4.81-4.62,6.26-36.93,32.72-65.99C76.05,66.83,71.71,76.06,76.53,80.41z"/>
	<path class="st2" d="M78.93,73.89c-6.02,7.88-17.81,7.6-26.23-0.54c-8.42-8.15-13.23-26.07-4.33-29.33
		c-4.33,1.63,19.73-5.97,28.15,2.17C84.95,54.61,84.95,66.01,78.93,73.89z"/>
	<path class="st2" d="M91.69,113.54c-7.94-15.48-10.59-35.57-8.66-50.78C49.1,55.97,55.35,50.26,43.56,99.42
		c-6.98,28.51-4.57,61.92,26.95,70.88c27.19,7.6,79.4-3.8,90.47-25.53C138.36,158.07,107.57,144.22,91.69,113.54z"/>
	<path class="st3" d="M50.54,45.38c0,2.72-1.92,5.16-4.09,5.16s-4.09-2.17-4.09-5.16c0-2.72,1.92-1.36,4.09-1.36
		C48.62,44.29,50.54,42.66,50.54,45.38z"/>
	<path class="st4" d="M101.79,172.47l-43.31-48.88l-16.12,18.19c3.61,13.31,12.03,24.17,28.15,28.79
		C79.17,173.01,90.24,173.55,101.79,172.47z"/>
	<path class="st2" d="M60.17,115.44c6.26,3.53,14.92-1.9,4.81,21.18c-10.11,23.08-23.34,38.83-29.6,35.3
		c-6.26-3.53-3.13-24.98,6.98-48.07C52.47,100.77,53.91,111.91,60.17,115.44z"/>
	<ellipse class="st0" cx="50.54" cy="53.25" rx="0.96" ry="1.09"/>
	<path class="st0" d="M53.91,55.7c0.53,0,0.96,0.49,0.96,1.09s-0.43,1.09-0.96,1.09s-0.96-0.49-0.96-1.09S53.38,55.7,53.91,55.7z"/>
	<path class="st0" d="M49.1,57.32c0.53,0,0.96,0.49,0.96,1.09s-0.43,1.09-0.96,1.09c-0.53,0-0.96-0.49-0.96-1.09
		S48.57,57.32,49.1,57.32z"/>
	<path class="st5" d="M41.98,133.41c4.39-10.43,9.5-18.06,11.42-17.03c1.92,1.03-0.08,10.32-4.46,20.75
		c-4.39,10.43-9.5,18.06-11.42,17.03S37.59,143.84,41.98,133.41z"/>
	<path class="st5" d="M48.19,88.54c1.69-8.03,4-14.28,5.17-13.97c1.16,0.31,0.74,7.07-0.95,15.1c-1.69,8.03-4,14.28-5.17,13.97
		S46.5,96.57,48.19,88.54z"/>
	<path class="st5" d="M43.83,110.56c0.46-2.19,1.68-3.74,2.71-3.46c1.03,0.28,1.5,2.28,1.04,4.47c-0.46,2.19-1.68,3.74-2.71,3.46
		C43.83,114.75,43.37,112.75,43.83,110.56z"/>
	<path class="st5" d="M59.68,44.29c2.79,0,5.05,0.61,5.05,1.36s-2.26,1.36-5.05,1.36c-2.79,0-5.05-0.61-5.05-1.36
		S56.89,44.29,59.68,44.29z"/>
	<path class="st5" d="M60.72,55.55c-0.18-1.18,1.91-2.57,4.66-3.1c2.75-0.53,5.13,0,5.3,1.18c0.18,1.18-1.91,2.57-4.66,3.1
		C63.27,57.27,60.9,56.74,60.72,55.55z"/>
	<path class="st3" d="M64.98,48.09c1.33,0,2.41,1.22,2.41,2.72c0,1.5-1.08,2.72-2.41,2.72c-1.33,0-2.41-1.22-2.41-2.72
		C62.57,49.31,63.65,48.09,64.98,48.09z"/>
	<path class="st6" d="M64.5,48.36c0.8,0,1.44,0.73,1.44,1.63s-0.65,1.63-1.44,1.63s-1.44-0.73-1.44-1.63S63.7,48.36,64.5,48.36z"/>
	<path class="st5" d="M75.81,104.85c1.46,0,2.65,1.34,2.65,2.99c0,1.65-1.19,2.99-2.65,2.99c-1.46,0-2.65-1.34-2.65-2.99
		C73.16,106.19,74.34,104.85,75.81,104.85z"/>
	<path class="st5" d="M73.64,99.15c0.8,0,1.44,0.73,1.44,1.63c0,0.9-0.65,1.63-1.44,1.63s-1.44-0.73-1.44-1.63
		C72.2,99.88,72.84,99.15,73.64,99.15z"/>
	<path class="st5" d="M71.71,95.07c0.27,0,0.48,0.24,0.48,0.54s-0.22,0.54-0.48,0.54c-0.27,0-0.48-0.24-0.48-0.54
		S71.45,95.07,71.71,95.07z"/>
	<path class="st4" d="M76.29,121.96c1.06,0,1.92,0.97,1.92,2.17s-0.86,2.17-1.92,2.17s-1.92-0.97-1.92-2.17
		S75.22,121.96,76.29,121.96z"/>
	<path class="st4" d="M82.78,128.75c0.53,0,0.96,0.49,0.96,1.09c0,0.6-0.43,1.09-0.96,1.09s-0.96-0.49-0.96-1.09
		C81.82,129.23,82.25,128.75,82.78,128.75z"/>
	<path class="st4" d="M77.97,95.89c0.53,0,0.96,0.49,0.96,1.09s-0.43,1.09-0.96,1.09c-0.53,0-0.96-0.49-0.96-1.09
		S77.44,95.89,77.97,95.89z"/>
	<polygon class="st7" points="83.99,81.22 46.21,81.22 48.62,73.08 83.02,73.08 	"/>
	<polyline class="st8" points="50.3,73.08 83.02,73.08 83.99,81.22 	"/>
	<polygon class="st9" points="38.22,22.65 36.4,24.25 40.76,29.11 40.77,29.11 40.78,29.11 48.6,21.16 47.21,19.33 40.85,24.56 	"/>
	
		<radialGradient id="SVGID_1_" cx="0" cy="0" r="1" gradientTransform="matrix(20.0001 0 0 19.9999 42 23.5)" gradientUnits="userSpaceOnUse">
		<stop  offset="0" style="stop-color:#FFFFFF"/>
		<stop  offset="0.0846" style="stop-color:#FFEDD9"/>
		<stop  offset="0.2079" style="stop-color:#FFD5A8"/>
		<stop  offset="0.3345" style="stop-color:#FFC17D"/>
		<stop  offset="0.4621" style="stop-color:#FFB05B"/>
		<stop  offset="0.5913" style="stop-color:#FFA340"/>
		<stop  offset="0.7225" style="stop-color:#FF9A2D"/>
		<stop  offset="0.857" style="stop-color:#FF9522"/>
		<stop  offset="1" style="stop-color:#FF931E"/>
	</radialGradient>
	<path class="st10" d="M42,3.5c-11.05,0-20,8.95-20,20s8.95,20,20,20s20-8.96,20-20S53.05,3.5,42,3.5z M42,34.55
		c-10.29,0-11.02-17.41-11.02-17.41L42,12.45h0l11.02,4.69C53.02,17.14,52.29,34.55,42,34.55z"/>
</g>
<g>
</g>
<g>
</g>
<g>
</g>
<g>
</g>
<g>
</g>
<g>
</g>
<g>
</g>
<g>
</g>
<g>
</g>
<g>
</g>
<g>
</g>
<g>
</g>
<g>
</g>
<g>
</g>
<g>
</g>
</svg>
