<?xml version="1.0" encoding="utf-8"?>
<!-- Generator: Adobe Illustrator 23.0.2, SVG Export Plug-In . SVG Version: 6.00 Build 0)  -->
<svg version="1.1" id="Layer_1" xmlns="http://www.w3.org/2000/svg" xmlns:xlink="http://www.w3.org/1999/xlink" x="0px" y="0px"
	 viewBox="0 0 500 200" style="enable-background:new 0 0 500 200;" xml:space="preserve">
<style type="text/css">
	.st0{fill:#0F597A;}
	.st1{fill:#0D415E;}
	.st2{fill:#0E91AF;}
	.st3{fill:#00233F;}
	.st4{fill:#057091;}
	.st5{fill:#1AB9D3;}
	.st6{fill:#0A3856;}
	.st7{fill:#E29524;}
	.st8{fill:#E07127;}
	.st9{fill:#39B54A;}
	.st10{fill:url(#SVGID_1_);}
</style>
<g>
	<path class="st0" d="M146.23,161.54L146.23,161.54c9.87-5.97,18.77-12.22,18.77-23.08c0.24-18.74-15.64-22.81-20.45-38.83v-0.54
		v0.54L146.23,161.54z"/>
	<path class="st1" d="M149.84,160.73L149.84,160.73c0.96-13.03,0.72-24.17-7.22-30.14c-13.96-10.32-24.78,1.9-40.18-0.54v0.27
		L149.84,160.73z"/>
	<path class="st0" d="M74.53,87.41c4.81,4.62,14.2-0.54-8.9,31.5c-23.1,32.04-45.72,54.31-50.53,49.7
		c-4.81-4.62,6.26-36.93,32.72-65.99C74.05,73.83,69.71,83.06,74.53,87.41z"/>
	<path class="st2" d="M76.93,80.89c-6.02,7.88-17.81,7.6-26.23-0.54c-8.42-8.15-13.23-26.07-4.33-29.33
		c-4.33,1.63,19.73-5.97,28.15,2.17C82.95,61.61,82.95,73.01,76.93,80.89z"/>
	<path class="st2" d="M89.69,120.54c-7.94-15.48-10.59-35.57-8.66-50.78c-33.93-6.79-27.67-12.49-39.46,36.66
		c-6.98,28.51-4.57,61.92,26.95,70.88c27.19,7.6,79.4-3.8,90.47-25.53C136.36,165.07,105.57,151.22,89.69,120.54z"/>
	<path class="st3" d="M48.54,52.38c0,2.72-1.92,5.16-4.09,5.16s-4.09-2.17-4.09-5.16c0-2.72,1.92-1.36,4.09-1.36
		C46.62,51.29,48.54,49.66,48.54,52.38z"/>
	<path class="st4" d="M99.79,179.47l-43.31-48.88l-16.12,18.19c3.61,13.31,12.03,24.17,28.15,28.79
		C77.17,180.01,88.24,180.55,99.79,179.47z"/>
	<path class="st2" d="M58.17,122.44c6.26,3.53,14.92-1.9,4.81,21.18c-10.11,23.08-23.34,38.83-29.6,35.3
		c-6.26-3.53-3.13-24.98,6.98-48.07C50.47,107.77,51.91,118.91,58.17,122.44z"/>
	<ellipse class="st0" cx="48.54" cy="60.25" rx="0.96" ry="1.09"/>
	<path class="st0" d="M51.91,62.7c0.53,0,0.96,0.49,0.96,1.09s-0.43,1.09-0.96,1.09s-0.96-0.49-0.96-1.09S51.38,62.7,51.91,62.7z"/>
	<path class="st0" d="M47.1,64.32c0.53,0,0.96,0.49,0.96,1.09s-0.43,1.09-0.96,1.09c-0.53,0-0.96-0.49-0.96-1.09
		S46.57,64.32,47.1,64.32z"/>
	<path class="st5" d="M39.98,140.41c4.39-10.43,9.5-18.06,11.42-17.03c1.92,1.03-0.08,10.32-4.46,20.75
		c-4.39,10.43-9.5,18.06-11.42,17.03S35.59,150.84,39.98,140.41z"/>
	<path class="st5" d="M46.19,95.54c1.69-8.03,4-14.28,5.17-13.97c1.16,0.31,0.74,7.07-0.95,15.1c-1.69,8.03-4,14.28-5.17,13.97
		S44.5,103.57,46.19,95.54z"/>
	<path class="st5" d="M41.83,117.56c0.46-2.19,1.68-3.74,2.71-3.46c1.03,0.28,1.5,2.28,1.04,4.47c-0.46,2.19-1.68,3.74-2.71,3.46
		C41.83,121.75,41.37,119.75,41.83,117.56z"/>
	<path class="st5" d="M57.68,51.29c2.79,0,5.05,0.61,5.05,1.36s-2.26,1.36-5.05,1.36c-2.79,0-5.05-0.61-5.05-1.36
		S54.89,51.29,57.68,51.29z"/>
	<path class="st5" d="M58.72,62.55c-0.18-1.18,1.91-2.57,4.66-3.1c2.75-0.53,5.13,0,5.3,1.18c0.18,1.18-1.91,2.57-4.66,3.1
		C61.27,64.27,58.9,63.74,58.72,62.55z"/>
	<path class="st3" d="M62.98,55.09c1.33,0,2.41,1.22,2.41,2.72c0,1.5-1.08,2.72-2.41,2.72c-1.33,0-2.41-1.22-2.41-2.72
		C60.57,56.31,61.65,55.09,62.98,55.09z"/>
	<path class="st6" d="M62.5,55.36c0.8,0,1.44,0.73,1.44,1.63s-0.65,1.63-1.44,1.63s-1.44-0.73-1.44-1.63S61.7,55.36,62.5,55.36z"/>
	<path class="st5" d="M73.81,111.85c1.46,0,2.65,1.34,2.65,2.99c0,1.65-1.19,2.99-2.65,2.99c-1.46,0-2.65-1.34-2.65-2.99
		C71.16,113.19,72.34,111.85,73.81,111.85z"/>
	<path class="st5" d="M71.64,106.15c0.8,0,1.44,0.73,1.44,1.63c0,0.9-0.65,1.63-1.44,1.63s-1.44-0.73-1.44-1.63
		C70.2,106.88,70.84,106.15,71.64,106.15z"/>
	<path class="st5" d="M69.71,102.07c0.27,0,0.48,0.24,0.48,0.54s-0.22,0.54-0.48,0.54c-0.27,0-0.48-0.24-0.48-0.54
		S69.45,102.07,69.71,102.07z"/>
	<path class="st4" d="M74.29,128.96c1.06,0,1.92,0.97,1.92,2.17s-0.86,2.17-1.92,2.17s-1.92-0.97-1.92-2.17
		S73.22,128.96,74.29,128.96z"/>
	<path class="st4" d="M80.78,135.75c0.53,0,0.96,0.49,0.96,1.09c0,0.6-0.43,1.09-0.96,1.09s-0.96-0.49-0.96-1.09
		C79.82,136.23,80.25,135.75,80.78,135.75z"/>
	<path class="st4" d="M75.97,102.89c0.53,0,0.96,0.49,0.96,1.09s-0.43,1.09-0.96,1.09c-0.53,0-0.96-0.49-0.96-1.09
		S75.44,102.89,75.97,102.89z"/>
	<polygon class="st7" points="81.99,88.22 44.21,88.22 46.62,80.08 81.02,80.08 	"/>
	<polyline class="st8" points="48.3,80.08 81.02,80.08 81.99,88.22 	"/>
	<g>
		<path class="st1" d="M182.42,81.71c4.56-1.06,11.76-1.85,19.08-1.85c10.44,0,17.16,1.98,22.2,6.47c4.2,3.43,6.72,8.71,6.72,15.71
			c0,8.58-5.16,16.1-13.68,19.54v0.26c7.68,2.11,16.68,9.11,16.68,22.31c0,7.66-2.76,13.46-6.84,17.82
			c-5.64,5.68-14.76,8.32-27.96,8.32c-7.2,0-12.72-0.53-16.2-1.06V81.71z M192.86,118.14h9.48c11.04,0,17.52-6.34,17.52-14.92
			c0-10.43-7.2-14.52-17.76-14.52c-4.8,0-7.56,0.4-9.24,0.79V118.14z M192.86,160.78c2.04,0.4,5.04,0.53,8.76,0.53
			c10.8,0,20.76-4.36,20.76-17.29c0-12.14-9.48-17.16-20.88-17.16h-8.64V160.78z"/>
		<path class="st1" d="M255.98,87.65c0.12,3.96-2.52,7.13-6.72,7.13c-3.72,0-6.36-3.17-6.36-7.13c0-4.09,2.76-7.26,6.6-7.26
			C253.46,80.39,255.98,83.55,255.98,87.65z M244.22,169.49V105.6h10.56v63.89H244.22z"/>
		<path class="st1" d="M281.9,87.25v18.35h15.12v8.84H281.9v34.45c0,7.92,2.04,12.41,7.92,12.41c2.76,0,4.8-0.4,6.12-0.79l0.48,8.71
			c-2.04,0.92-5.28,1.58-9.36,1.58c-4.92,0-8.88-1.72-11.4-4.88c-3-3.43-4.08-9.11-4.08-16.63v-34.85h-9v-8.84h9V90.29L281.9,87.25z
			"/>
		<path class="st1" d="M305.78,155.5c4.68,3.17,11.52,5.81,18.72,5.81c10.68,0,16.92-6.2,16.92-15.18c0-8.32-4.32-13.07-15.24-17.69
			c-13.2-5.15-21.36-12.67-21.36-25.21c0-13.86,10.44-24.16,26.16-24.16c8.28,0,14.28,2.11,17.88,4.36l-2.88,9.37
			c-2.64-1.58-8.04-4.22-15.36-4.22c-11.04,0-15.24,7.26-15.24,13.33c0,8.32,4.92,12.41,16.08,17.16
			c13.68,5.81,20.64,13.07,20.64,26.14c0,13.73-9.24,25.61-28.32,25.61c-7.8,0-16.32-2.51-20.64-5.68L305.78,155.5z"/>
		<path class="st1" d="M369.5,139.66c0.24,15.71,9.36,22.18,19.92,22.18c7.56,0,12.12-1.45,16.08-3.3l1.8,8.32
			c-3.72,1.85-10.08,3.96-19.32,3.96c-17.88,0-28.56-12.94-28.56-32.21s10.32-34.45,27.24-34.45c18.96,0,24,18.35,24,30.1
			c0,2.38-0.24,4.22-0.36,5.41H369.5z M400.46,131.34c0.12-7.39-2.76-18.88-14.64-18.88c-10.68,0-15.36,10.82-16.2,18.88H400.46z"/>
		<path class="st1" d="M452.66,169.49l-0.84-8.05h-0.36c-3.24,5.02-9.48,9.5-17.76,9.5c-11.76,0-17.76-9.11-17.76-18.35
			c0-15.44,12.48-23.89,34.92-23.76v-1.32c0-5.28-1.32-14.78-13.2-14.78c-5.4,0-11.04,1.85-15.12,4.75l-2.4-7.66
			c4.8-3.43,11.76-5.68,19.08-5.68c17.76,0,22.08,13.33,22.08,26.14v23.89c0,5.54,0.24,10.96,0.96,15.31H452.66z M451.1,136.88
			c-11.52-0.26-24.6,1.98-24.6,14.39c0,7.52,4.56,11.09,9.96,11.09c7.56,0,12.36-5.28,14.04-10.69c0.36-1.19,0.6-2.51,0.6-3.7
			V136.88z"/>
		<path class="st1" d="M475.1,75.77h10.56v93.72H475.1V75.77z"/>
	</g>
	<polygon class="st9" points="36.22,29.65 34.4,31.25 38.76,36.11 38.77,36.11 38.78,36.11 46.6,28.16 45.21,26.33 38.85,31.56 	"/>
	
		<radialGradient id="SVGID_1_" cx="-3.814657e-07" cy="9.094947e-13" r="1" gradientTransform="matrix(20.0002 0 0 -20 40 30.5)" gradientUnits="userSpaceOnUse">
		<stop  offset="0" style="stop-color:#FFFFFF"/>
		<stop  offset="0.0849" style="stop-color:#FFEDD9"/>
		<stop  offset="0.2081" style="stop-color:#FFD5A8"/>
		<stop  offset="0.3345" style="stop-color:#FFC17D"/>
		<stop  offset="0.4621" style="stop-color:#FFB05B"/>
		<stop  offset="0.5911" style="stop-color:#FFA340"/>
		<stop  offset="0.7223" style="stop-color:#FF9A2D"/>
		<stop  offset="0.8569" style="stop-color:#FF9522"/>
		<stop  offset="1" style="stop-color:#FF931E"/>
	</radialGradient>
	<path class="st10" d="M40,10.5c-11.05,0-20,8.95-20,20s8.95,20,20,20s20-8.96,20-20S51.05,10.5,40,10.5z M40,41.55
		c-10.29,0-11.02-17.41-11.02-17.41L40,19.45h0l11.02,4.69C51.02,24.14,50.29,41.55,40,41.55z"/>
</g>
<g>
</g>
<g>
</g>
<g>
</g>
<g>
</g>
<g>
</g>
<g>
</g>
<g>
</g>
<g>
</g>
<g>
</g>
<g>
</g>
<g>
</g>
<g>
</g>
<g>
</g>
<g>
</g>
<g>
</g>
</svg>
