<?xml version="1.0" encoding="utf-8"?>
<!-- Generator: Adobe Illustrator 23.0.2, SVG Export Plug-In . SVG Version: 6.00 Build 0)  -->
<svg version="1.1" id="Layer_1" xmlns="http://www.w3.org/2000/svg" xmlns:xlink="http://www.w3.org/1999/xlink" x="0px" y="0px"
	 viewBox="0 0 180 180" style="enable-background:new 0 0 180 180;" xml:space="preserve">
<style type="text/css">
	.st0{fill:#0F597A;}
	.st1{fill:#0D415E;}
	.st2{fill:#0E91AF;}
	.st3{fill:#00233F;}
	.st4{fill:#057091;}
	.st5{fill:#1AB9D3;}
	.st6{fill:#0A3856;}
	.st7{fill:#E29524;}
	.st8{fill:#E07127;}
</style>
<g>
	<path class="st0" d="M153.87,142.77L153.87,142.77c11.11-6.73,21.13-13.76,21.13-25.99c0.27-21.1-17.61-25.68-23.03-43.72v-0.61
		v0.61L153.87,142.77z"/>
	<path class="st1" d="M157.93,141.85L157.93,141.85c1.08-14.67,0.81-27.21-8.13-33.94c-15.71-11.62-27.9,2.14-45.24-0.61v0.31
		L157.93,141.85z"/>
	<path class="st0" d="M73.14,59.3c5.42,5.2,15.98-0.61-10.02,35.46c-26.01,36.08-51.47,61.15-56.89,55.95
		c-5.42-5.2,7.04-41.58,36.84-74.29C72.6,44.01,67.72,54.41,73.14,59.3z"/>
	<path class="st2" d="M75.85,51.96c-6.77,8.87-20.05,8.56-29.53-0.61c-9.48-9.17-14.9-29.35-4.88-33.02
		c-4.88,1.83,22.21-6.73,31.69,2.45C82.62,30.26,82.62,43.1,75.85,51.96z"/>
	<path class="st2" d="M90.21,96.6c-8.94-17.43-11.92-40.05-9.75-57.17C42.26,31.79,49.3,25.37,36.03,80.7
		c-7.86,32.1-5.15,69.71,30.34,79.8c30.61,8.56,89.39-4.28,101.85-28.74C142.76,146.74,108.09,131.15,90.21,96.6z"/>
	<path class="st3" d="M43.89,19.86c0,3.06-2.17,5.81-4.61,5.81c-2.44,0-4.61-2.45-4.61-5.81c0-3.06,2.17-1.53,4.61-1.53
		C41.72,18.64,43.89,16.8,43.89,19.86z"/>
	<path class="st4" d="M101.59,162.94l-48.76-55.03L34.68,128.4c4.06,14.98,13.54,27.21,31.69,32.41
		C76.12,163.56,88.58,164.17,101.59,162.94z"/>
	<path class="st2" d="M54.72,98.74c7.04,3.97,16.8-2.14,5.42,23.85c-11.38,25.99-26.28,43.72-33.32,39.75
		c-7.04-3.97-3.52-28.13,7.86-54.11C46.05,82.23,47.68,94.77,54.72,98.74z"/>
	<ellipse class="st0" cx="43.89" cy="28.73" rx="1.08" ry="1.22"/>
	<path class="st0" d="M47.68,31.48c0.6,0,1.08,0.55,1.08,1.22c0,0.68-0.48,1.22-1.08,1.22c-0.6,0-1.08-0.55-1.08-1.22
		C46.6,32.03,47.08,31.48,47.68,31.48z"/>
	<path class="st0" d="M42.26,33.31c0.6,0,1.08,0.55,1.08,1.22c0,0.68-0.49,1.22-1.08,1.22c-0.6,0-1.08-0.55-1.08-1.22
		C41.18,33.86,41.66,33.31,42.26,33.31z"/>
	<path class="st5" d="M34.25,118.97c4.94-11.75,10.69-20.33,12.86-19.17c2.16,1.16-0.09,11.62-5.02,23.37
		c-4.94,11.75-10.69,20.33-12.86,19.17S29.31,130.72,34.25,118.97z"/>
	<path class="st5" d="M41.24,68.46c1.9-9.04,4.51-16.07,5.82-15.72c1.31,0.35,0.83,7.96-1.07,17c-1.9,9.04-4.51,16.08-5.82,15.72
		C38.86,85.1,39.34,77.49,41.24,68.46z"/>
	<path class="st5" d="M36.33,93.25c0.52-2.46,1.89-4.21,3.05-3.89c1.16,0.31,1.69,2.56,1.17,5.03c-0.52,2.46-1.89,4.21-3.05,3.89
		C36.33,97.96,35.81,95.71,36.33,93.25z"/>
	<path class="st5" d="M54.18,18.64c3.14,0,5.69,0.68,5.69,1.53s-2.55,1.53-5.69,1.53c-3.14,0-5.69-0.68-5.69-1.53
		S51.04,18.64,54.18,18.64z"/>
	<path class="st5" d="M55.35,31.32c-0.2-1.33,2.15-2.89,5.24-3.49c3.1-0.6,5.77,0,5.97,1.33c0.2,1.33-2.15,2.89-5.24,3.49
		C58.22,33.25,55.55,32.65,55.35,31.32z"/>
	<path class="st3" d="M60.14,22.92c1.5,0,2.71,1.37,2.71,3.06c0,1.69-1.21,3.06-2.71,3.06c-1.5,0-2.71-1.37-2.71-3.06
		C57.43,24.29,58.64,22.92,60.14,22.92z"/>
	<path class="st6" d="M59.6,23.22c0.9,0,1.63,0.82,1.63,1.83c0,1.01-0.73,1.83-1.63,1.83s-1.62-0.82-1.62-1.83
		C57.97,24.05,58.7,23.22,59.6,23.22z"/>
	<path class="st5" d="M72.33,86.82c1.65,0,2.98,1.51,2.98,3.36c0,1.86-1.33,3.36-2.98,3.36c-1.65,0-2.98-1.51-2.98-3.36
		C69.35,88.32,70.68,86.82,72.33,86.82z"/>
	<path class="st5" d="M69.89,80.4c0.9,0,1.62,0.82,1.62,1.83c0,1.01-0.73,1.83-1.62,1.83s-1.63-0.82-1.63-1.83
		C68.27,81.22,68.99,80.4,69.89,80.4z"/>
	<path class="st5" d="M67.72,75.81c0.3,0,0.54,0.27,0.54,0.61c0,0.34-0.24,0.61-0.54,0.61c-0.3,0-0.54-0.27-0.54-0.61
		C67.18,76.09,67.43,75.81,67.72,75.81z"/>
	<path class="st4" d="M72.87,106.08c1.2,0,2.17,1.1,2.17,2.45s-0.97,2.45-2.17,2.45c-1.2,0-2.17-1.09-2.17-2.45
		S71.68,106.08,72.87,106.08z"/>
	<path class="st4" d="M80.19,113.72c0.6,0,1.08,0.55,1.08,1.22c0,0.68-0.48,1.22-1.08,1.22c-0.6,0-1.08-0.55-1.08-1.22
		C79.1,114.27,79.59,113.72,80.19,113.72z"/>
	<path class="st4" d="M74.77,76.73c0.6,0,1.08,0.55,1.08,1.22s-0.49,1.22-1.08,1.22c-0.6,0-1.08-0.55-1.08-1.22
		S74.17,76.73,74.77,76.73z"/>
	<polygon class="st7" points="81.54,60.22 39.01,60.22 41.72,51.05 80.46,51.05 	"/>
	<polyline class="st8" points="43.62,51.05 80.46,51.05 81.54,60.22 	"/>
</g>
<g>
</g>
<g>
</g>
<g>
</g>
<g>
</g>
<g>
</g>
<g>
</g>
<g>
</g>
<g>
</g>
<g>
</g>
<g>
</g>
<g>
</g>
<g>
</g>
<g>
</g>
<g>
</g>
<g>
</g>
</svg>
