<?xml version="1.0" encoding="utf-8"?>
<!-- Generator: Adobe Illustrator 23.0.2, SVG Export Plug-In . SVG Version: 6.00 Build 0)  -->
<svg version="1.1" id="Layer_1" xmlns="http://www.w3.org/2000/svg" xmlns:xlink="http://www.w3.org/1999/xlink" x="0px" y="0px"
	 viewBox="0 0 180 180" style="enable-background:new 0 0 180 180;" xml:space="preserve">
<style type="text/css">
	.st0{fill:#0F597A;}
	.st1{fill:#0D415E;}
	.st2{fill:#0E91AF;}
	.st3{fill:#00233F;}
	.st4{fill:#057091;}
	.st5{fill:#1AB9D3;}
	.st6{fill:#0A3856;}
	.st7{fill:#E29524;}
	.st8{fill:#E07127;}
	.st9{fill:url(#SVGID_1_);}
	.st10{fill:#FFFFFF;}
</style>
<g>
	<path class="st0" d="M160.7,154.7L160.7,154.7c9.4-5.7,17.9-11.7,17.9-22c0.2-17.9-14.9-21.8-19.5-37v-0.5v0.5L160.7,154.7z"/>
	<path class="st1" d="M164.2,153.9L164.2,153.9c0.9-12.4,0.7-23.1-6.9-28.8c-13.3-9.8-23.6,1.8-38.2-0.5v0.3L164.2,153.9z"/>
	<path class="st0" d="M101.4,149c-4.7,4.3-0.4,13.6-29.4-10.4c-29-24-48.8-46.9-44.1-51.1c4.7-4.3,34.7,8.2,60.7,35.2
		C114.4,149.3,105.9,144.6,101.4,149z"/>
	<path class="st2" d="M94.8,77.8c-5.7,7.5-16.9,7.3-25-0.5c-8-7.8-12.6-24.9-4.1-28c-4.1,1.6,18.8-5.7,26.8,2.1
		C100.5,59.4,100.5,70.2,94.8,77.8z"/>
	<path class="st2" d="M107,115.6c-7.6-14.8-10.1-33.9-8.2-48.4c-32.3-6.5-26.3-11.9-37.6,35c-6.6,27.2-4.3,59.1,25.6,67.6
		c25.9,7.3,75.5-3.6,86.1-24.4C151.4,158.1,122.1,144.9,107,115.6z"/>
	<path class="st3" d="M67.8,50.6c0,2.6-1.8,4.9-3.9,4.9c-2.1,0-3.9-2.1-3.9-4.9c0-2.6,1.8-1.3,3.9-1.3C66,49.5,67.8,48,67.8,50.6z"
		/>
	<path class="st4" d="M116.6,171.8l-41.2-46.6L60,142.5c3.4,12.7,11.4,23.1,26.8,27.5C95,172.3,105.6,172.8,116.6,171.8z"/>
	<path class="st2" d="M80.9,136.6c-2.6,6.4,3.7,13.9-19.5,7.3c-23.2-6.6-39.9-17.1-37.4-23.5c2.6-6.4,23.4-6.2,46.6,0.4
		C93.9,127.5,83.5,130.3,80.9,136.6z"/>
	<ellipse class="st0" cx="67.8" cy="58.1" rx="0.9" ry="1"/>
	<ellipse class="st0" cx="71" cy="61.4" rx="0.9" ry="1"/>
	<path class="st0" d="M66.4,62c0.5,0,0.9,0.5,0.9,1c0,0.6-0.4,1-0.9,1c-0.5,0-0.9-0.5-0.9-1C65.5,62.4,65.9,62,66.4,62z"/>
	<path class="st5" d="M56.7,124.2c10.5,2.5,18.5,6,17.8,8c-0.7,2-9.7,1.6-20.2-0.9c-10.5-2.5-18.5-6-17.8-8S46.2,121.7,56.7,124.2z"
		/>
	<path class="st5" d="M65.6,91.7c1.6-7.7,3.8-13.6,4.9-13.3c1.1,0.3,0.7,6.7-0.9,14.4c-1.6,7.7-3.8,13.6-4.9,13.3
		C63.5,105.8,64,99.4,65.6,91.7z"/>
	<path class="st5" d="M61.4,112.7c0.4-2.1,1.6-3.6,2.6-3.3c1,0.3,1.4,2.2,1,4.3c-0.4,2.1-1.6,3.6-2.6,3.3
		C61.4,116.7,61,114.8,61.4,112.7z"/>
	<path class="st5" d="M76.5,49.5c2.7,0,4.8,0.6,4.8,1.3c0,0.7-2.1,1.3-4.8,1.3c-2.7,0-4.8-0.6-4.8-1.3
		C71.7,50.1,73.8,49.5,76.5,49.5z"/>
	<path class="st5" d="M77.5,60.3c-0.2-1.1,1.8-2.5,4.4-3c2.6-0.5,4.9,0,5,1.1c0.2,1.1-1.8,2.5-4.4,3C79.9,61.9,77.7,61.4,77.5,60.3z
		"/>
	<path class="st3" d="M81.5,53.1c1.3,0,2.3,1.2,2.3,2.6c0,1.4-1,2.6-2.3,2.6c-1.3,0-2.3-1.2-2.3-2.6C79.2,54.3,80.3,53.1,81.5,53.1z
		"/>
	<path class="st6" d="M81.1,53.4c0.8,0,1.4,0.7,1.4,1.6c0,0.9-0.6,1.6-1.4,1.6s-1.4-0.7-1.4-1.6C79.7,54.1,80.3,53.4,81.1,53.4z"/>
	<ellipse class="st5" cx="91.8" cy="110.1" rx="2.5" ry="2.9"/>
	<ellipse class="st5" cx="89.8" cy="103.4" rx="1.4" ry="1.6"/>
	<ellipse class="st5" cx="87.9" cy="98.5" rx="0.5" ry="0.5"/>
	<ellipse class="st4" cx="92.3" cy="125.7" rx="1.8" ry="2.1"/>
	<path class="st4" d="M98.5,130.1c0.5,0,0.9,0.5,0.9,1c0,0.6-0.4,1-0.9,1c-0.5,0-0.9-0.5-0.9-1C97.6,130.6,98,130.1,98.5,130.1z"/>
	<path class="st4" d="M93.9,98.7c0.5,0,0.9,0.5,0.9,1c0,0.6-0.4,1-0.9,1c-0.5,0-0.9-0.5-0.9-1C93,99.2,93.4,98.7,93.9,98.7z"/>
	<polygon class="st7" points="99.6,84.8 63.7,84.8 66,77 98.7,77 	"/>
	<polyline class="st8" points="67.6,77 98.7,77 99.6,84.8 	"/>
	
		<radialGradient id="SVGID_1_" cx="-0.5665" cy="177.3546" r="1" gradientTransform="matrix(16.7207 0 0 -16.7207 40.3367 3035.3516)" gradientUnits="userSpaceOnUse">
		<stop  offset="0" style="stop-color:#FFFFFF"/>
		<stop  offset="8.460000e-02" style="stop-color:#FFEDD9"/>
		<stop  offset="0.2079" style="stop-color:#FFD5A8"/>
		<stop  offset="0.3345" style="stop-color:#FFC17D"/>
		<stop  offset="0.4621" style="stop-color:#FFB05B"/>
		<stop  offset="0.5913" style="stop-color:#FFA340"/>
		<stop  offset="0.7225" style="stop-color:#FF9A2D"/>
		<stop  offset="0.857" style="stop-color:#FF9522"/>
		<stop  offset="1" style="stop-color:#FF931E"/>
	</radialGradient>
	<path class="st9" d="M47.6,69.9c0,9.2-7.5,16.7-16.7,16.7c-9.2,0-16.7-7.5-16.7-16.7c0-9.2,7.5-16.7,16.7-16.7
		C40.1,53.1,47.6,60.6,47.6,69.9z"/>
	<g>
		<path class="st10" d="M33,72.1h-4.3v-0.7c0-1,0.1-1.7,0.3-2.2s0.6-0.8,1.2-1.1l0.8-0.4c0.6-0.3,0.9-0.6,0.9-1.1
			c0-0.3-0.1-0.5-0.3-0.7s-0.4-0.3-0.7-0.3c-0.8,0-1.1,0.5-1.1,1.6h-4c0-1.4,0.3-2.6,1-3.5c0.5-0.7,1.1-1.2,1.9-1.6s1.6-0.6,2.4-0.6
			c1.5,0,2.7,0.5,3.7,1.5s1.5,2.2,1.5,3.6c0,1.8-0.7,3-2.2,3.7c-0.5,0.2-0.8,0.4-0.9,0.6S33,71.5,33,72.1z M30.9,72.7
			c0.8,0,1.4,0.3,2,0.8s0.8,1.2,0.8,2s-0.3,1.4-0.8,2s-1.2,0.8-2,0.8c-0.8,0-1.5-0.3-2-0.8s-0.8-1.2-0.8-2c0-0.8,0.3-1.4,0.8-2
			S30.1,72.7,30.9,72.7z"/>
	</g>
</g>
</svg>
