<?xml version="1.0" encoding="utf-8"?>
<!-- Generator: Adobe Illustrator 23.0.2, SVG Export Plug-In . SVG Version: 6.00 Build 0)  -->
<svg version="1.1" id="Layer_1" xmlns="http://www.w3.org/2000/svg" xmlns:xlink="http://www.w3.org/1999/xlink" x="0px" y="0px"
	 viewBox="0 0 640 200" style="enable-background:new 0 0 640 200;" xml:space="preserve">
<style type="text/css">
	.st0{fill:#0F597A;}
	.st1{fill:#0D415E;}
	.st2{fill:#0E91AF;}
	.st3{fill:#00233F;}
	.st4{fill:#057091;}
	.st5{fill:#1AB9D3;}
	.st6{fill:#0A3856;}
	.st7{fill:#E29524;}
	.st8{fill:#E07127;}
	.st9{fill:#39B54A;}
	.st10{fill:url(#SVGID_1_);}
</style>
<g>
	<path class="st0" d="M142.23,166.29L142.23,166.29c9.87-5.97,18.77-12.22,18.77-23.08c0.24-18.74-15.64-22.81-20.45-38.83v-0.54
		v0.54L142.23,166.29z"/>
	<path class="st1" d="M145.84,165.48L145.84,165.48c0.96-13.04,0.72-24.17-7.22-30.14c-13.96-10.32-24.78,1.9-40.18-0.54v0.27
		L145.84,165.48z"/>
	<path class="st0" d="M70.53,92.16c4.81,4.62,14.2-0.54-8.9,31.5c-23.1,32.04-45.72,54.31-50.53,49.7
		c-4.81-4.62,6.26-36.93,32.72-65.99C70.05,78.58,65.71,87.81,70.53,92.16z"/>
	<path class="st2" d="M72.93,85.64c-6.02,7.88-17.81,7.6-26.23-0.54c-8.42-8.15-13.23-26.07-4.33-29.33
		c-4.33,1.63,19.73-5.97,28.15,2.17C78.95,66.36,78.95,77.77,72.93,85.64z"/>
	<path class="st2" d="M85.69,125.29c-7.94-15.48-10.59-35.57-8.66-50.78c-33.93-6.79-27.67-12.49-39.46,36.66
		c-6.98,28.51-4.57,61.92,26.95,70.88c27.19,7.6,79.4-3.8,90.47-25.53C132.36,169.82,101.57,155.97,85.69,125.29z"/>
	<path class="st3" d="M44.54,57.13c0,2.72-1.92,5.16-4.09,5.16s-4.09-2.17-4.09-5.16c0-2.72,1.92-1.36,4.09-1.36
		C42.62,56.04,44.54,54.41,44.54,57.13z"/>
	<path class="st4" d="M95.79,184.22l-43.31-48.88l-16.12,18.19c3.61,13.31,12.03,24.17,28.15,28.79
		C73.17,184.76,84.24,185.3,95.79,184.22z"/>
	<path class="st2" d="M54.17,127.19c6.26,3.53,14.92-1.9,4.81,21.18c-10.11,23.08-23.34,38.83-29.6,35.3s-3.13-24.98,6.98-48.07
		C46.47,112.52,47.91,123.66,54.17,127.19z"/>
	<path class="st0" d="M44.54,63.92c0.53,0,0.96,0.49,0.96,1.09c0,0.6-0.43,1.09-0.96,1.09S43.58,65.6,43.58,65
		C43.58,64.4,44.01,63.92,44.54,63.92z"/>
	<path class="st0" d="M47.91,67.45c0.53,0,0.96,0.49,0.96,1.09c0,0.6-0.43,1.09-0.96,1.09s-0.96-0.49-0.96-1.09
		C46.95,67.93,47.38,67.45,47.91,67.45z"/>
	<path class="st0" d="M43.1,69.08c0.53,0,0.96,0.49,0.96,1.09c0,0.6-0.43,1.09-0.96,1.09c-0.53,0-0.96-0.49-0.96-1.09
		C42.13,69.56,42.57,69.08,43.1,69.08z"/>
	<path class="st5" d="M35.98,145.16c4.39-10.43,9.5-18.06,11.42-17.03c1.92,1.03-0.08,10.32-4.46,20.75
		c-4.39,10.43-9.5,18.06-11.42,17.03S31.59,155.59,35.98,145.16z"/>
	<path class="st5" d="M42.19,100.29c1.69-8.03,4-14.28,5.17-13.97c1.16,0.31,0.74,7.07-0.95,15.1c-1.69,8.03-4,14.28-5.17,13.97
		C40.07,115.07,40.5,108.32,42.19,100.29z"/>
	<path class="st5" d="M37.83,122.31c0.46-2.19,1.68-3.74,2.71-3.46c1.03,0.28,1.5,2.28,1.04,4.47c-0.46,2.19-1.68,3.74-2.71,3.46
		S37.37,124.5,37.83,122.31z"/>
	<path class="st5" d="M53.68,56.04c2.79,0,5.05,0.61,5.05,1.36s-2.26,1.36-5.05,1.36c-2.79,0-5.05-0.61-5.05-1.36
		S50.89,56.04,53.68,56.04z"/>
	<path class="st5" d="M54.72,67.3c-0.18-1.18,1.91-2.57,4.66-3.1c2.75-0.53,5.13,0,5.3,1.18c0.18,1.18-1.91,2.57-4.66,3.1
		C57.27,69.02,54.9,68.49,54.72,67.3z"/>
	<path class="st3" d="M58.98,59.84c1.33,0,2.41,1.22,2.41,2.72c0,1.5-1.08,2.72-2.41,2.72c-1.33,0-2.41-1.22-2.41-2.72
		C56.57,61.06,57.65,59.84,58.98,59.84z"/>
	<ellipse class="st6" cx="58.5" cy="61.74" rx="1.44" ry="1.63"/>
	<path class="st5" d="M69.81,116.6c1.46,0,2.65,1.34,2.65,2.99c0,1.65-1.19,2.99-2.65,2.99c-1.46,0-2.65-1.34-2.65-2.99
		C67.16,117.94,68.34,116.6,69.81,116.6z"/>
	<path class="st5" d="M67.64,110.9c0.8,0,1.44,0.73,1.44,1.63c0,0.9-0.65,1.63-1.44,1.63c-0.8,0-1.44-0.73-1.44-1.63
		C66.2,111.63,66.84,110.9,67.64,110.9z"/>
	<path class="st5" d="M65.71,106.82c0.27,0,0.48,0.24,0.48,0.54c0,0.3-0.22,0.54-0.48,0.54c-0.27,0-0.48-0.24-0.48-0.54
		C65.23,107.06,65.45,106.82,65.71,106.82z"/>
	<path class="st4" d="M76.78,140.5c0.53,0,0.96,0.49,0.96,1.09c0,0.6-0.43,1.09-0.96,1.09s-0.96-0.49-0.96-1.09
		C75.82,140.98,76.25,140.5,76.78,140.5z"/>
	<path class="st4" d="M71.97,107.64c0.53,0,0.96,0.49,0.96,1.09c0,0.6-0.43,1.09-0.96,1.09c-0.53,0-0.96-0.49-0.96-1.09
		C71.01,108.12,71.44,107.64,71.97,107.64z"/>
	<polygon class="st7" points="77.99,92.97 40.21,92.97 42.62,84.83 77.02,84.83 	"/>
	<polyline class="st8" points="44.3,84.83 77.02,84.83 77.99,92.97 	"/>
	<g>
		<path class="st1" d="M215.37,58.92c5.73-1.38,14.79-2.42,23.99-2.42c13.13,0,21.58,2.59,27.91,8.45
			c5.28,4.48,8.45,11.38,8.45,20.53c0,11.21-6.49,21.05-17.2,25.53v0.34c9.66,2.76,20.97,11.9,20.97,29.15c0,10-3.47,17.6-8.6,23.29
			c-7.09,7.42-18.56,10.87-35.16,10.87c-9.05,0-15.99-0.69-20.37-1.38V58.92z M228.5,106.53h11.92c13.88,0,22.03-8.28,22.03-19.49
			c0-13.63-9.05-18.98-22.33-18.98c-6.04,0-9.51,0.52-11.62,1.04V106.53z M228.5,162.24c2.56,0.52,6.34,0.69,11.02,0.69
			c13.58,0,26.1-5.69,26.1-22.6c0-15.87-11.92-22.43-26.25-22.43H228.5V162.24z"/>
		<path class="st1" d="M311.48,66.68c0.15,5.17-3.17,9.31-8.45,9.31c-4.68,0-8-4.14-8-9.31c0-5.35,3.47-9.49,8.3-9.49
			C308.31,57.19,311.48,61.33,311.48,66.68z M296.7,173.63V90.14h13.28v83.49H296.7z"/>
		<path class="st1" d="M348,66.16v23.98h19.01v11.56H348v45.02c0,10.35,2.57,16.22,9.96,16.22c3.47,0,6.04-0.52,7.7-1.04l0.6,11.38
			c-2.56,1.21-6.64,2.07-11.77,2.07c-6.19,0-11.17-2.24-14.33-6.38c-3.77-4.48-5.13-11.9-5.13-21.73V101.7H323.7V90.14h11.32V70.13
			L348,66.16z"/>
	</g>
	<g>
		<path class="st1" d="M380.59,155.34c5.88,4.14,14.48,7.59,23.54,7.59c13.43,0,21.28-8.11,21.28-19.84
			c0-10.87-5.43-17.08-19.16-23.11c-16.6-6.73-26.86-16.56-26.86-32.95c0-18.11,13.13-31.57,32.9-31.57
			c10.41,0,17.96,2.76,22.48,5.69l-3.62,12.25c-3.32-2.07-10.11-5.52-19.31-5.52c-13.88,0-19.16,9.49-19.16,17.42
			c0,10.87,6.19,16.21,20.22,22.43c17.2,7.59,25.95,17.08,25.95,34.15c0,17.94-11.62,33.47-35.61,33.47
			c-9.81,0-20.52-3.28-25.95-7.42L380.59,155.34z"/>
	</g>
	<g>
		<path class="st1" d="M464.48,134.64c0.3,20.53,11.77,28.98,25.05,28.98c9.51,0,15.24-1.9,20.22-4.31l2.26,10.87
			c-4.68,2.42-12.68,5.18-24.29,5.18c-22.48,0-35.91-16.91-35.91-42.09s12.98-45.02,34.25-45.02c23.84,0,30.18,23.98,30.18,39.33
			c0,3.1-0.3,5.52-0.45,7.07H464.48z M503.41,123.78c0.15-9.66-3.47-24.67-18.41-24.67c-13.43,0-19.31,14.15-20.37,24.67H503.41z"/>
		<path class="st1" d="M573.12,173.63l-1.06-10.52h-0.45c-4.07,6.56-11.92,12.42-22.33,12.42c-14.79,0-22.33-11.9-22.33-23.98
			c0-20.18,15.69-31.22,43.91-31.05v-1.72c0-6.9-1.66-19.32-16.6-19.32c-6.79,0-13.88,2.42-19.01,6.21l-3.02-10
			c6.04-4.48,14.79-7.42,23.99-7.42c22.33,0,27.76,17.42,27.76,34.15v31.22c0,7.25,0.3,14.32,1.21,20.01H573.12z M571.16,131.02
			c-14.49-0.35-30.93,2.59-30.93,18.8c0,9.83,5.73,14.49,12.52,14.49c9.51,0,15.54-6.9,17.65-13.97c0.45-1.55,0.76-3.28,0.76-4.83
			V131.02z"/>
		<path class="st1" d="M605.41,51.15h13.28v122.48h-13.28V51.15z"/>
	</g>
	<polygon class="st9" points="32.22,34.4 30.4,36 34.76,40.86 34.77,40.86 34.78,40.86 42.6,32.91 41.21,31.08 34.85,36.31 	"/>
	
		<radialGradient id="SVGID_1_" cx="320" cy="100" r="1" gradientTransform="matrix(20.0002 0 0 20 -6364.0708 -1964.7518)" gradientUnits="userSpaceOnUse">
		<stop  offset="0" style="stop-color:#FFFFFF"/>
		<stop  offset="0.0846" style="stop-color:#FFEDD9"/>
		<stop  offset="0.2079" style="stop-color:#FFD5A8"/>
		<stop  offset="0.3345" style="stop-color:#FFC17D"/>
		<stop  offset="0.4621" style="stop-color:#FFB05B"/>
		<stop  offset="0.5913" style="stop-color:#FFA340"/>
		<stop  offset="0.7225" style="stop-color:#FF9A2D"/>
		<stop  offset="0.857" style="stop-color:#FF9522"/>
		<stop  offset="1" style="stop-color:#FF931E"/>
	</radialGradient>
	<path class="st10" d="M36,15.25c-11.05,0-20,8.95-20,20s8.95,20,20,20s20-8.96,20-20S47.04,15.25,36,15.25z M36,46.3
		c-10.29,0-11.02-17.41-11.02-17.41L36,24.2h0l11.02,4.69C47.02,28.89,46.29,46.3,36,46.3z"/>
</g>
<g>
</g>
<g>
</g>
<g>
</g>
<g>
</g>
<g>
</g>
<g>
</g>
<g>
</g>
<g>
</g>
<g>
</g>
<g>
</g>
<g>
</g>
<g>
</g>
<g>
</g>
<g>
</g>
<g>
</g>
</svg>
