<?xml version="1.0" encoding="utf-8"?>
<!-- Generator: Adobe Illustrator 23.0.2, SVG Export Plug-In . SVG Version: 6.00 Build 0)  -->
<svg version="1.1" id="Layer_1" xmlns="http://www.w3.org/2000/svg" xmlns:xlink="http://www.w3.org/1999/xlink" x="0px" y="0px"
	 viewBox="0 0 512 512" style="enable-background:new 0 0 512 512;" xml:space="preserve">
<style type="text/css">
	.st0{fill:#B1E3FB;}
	.st1{fill:#0F597A;}
	.st2{fill:#0D415E;}
	.st3{fill:#0E91AF;}
	.st4{fill:#00233F;}
	.st5{fill:#057091;}
	.st6{fill:#1AB9D3;}
	.st7{fill:#0A3856;}
	.st8{fill:#E29524;}
	.st9{fill:#E07127;}
	.st10{fill:#A2DFFB;}
	.st11{fill:#98DBFB;}
	.st12{fill:#E2F4FD;}
	.st13{fill:#7FDDE9;}
	.st14{fill:#4CCFDF;}
	.st15{fill:#26C5D9;}
	.st16{fill:#31BBCB;}
	.st17{fill:#8CD7FA;}
</style>
<path class="st0" d="M256,0c141.4,0,256,114.6,256,256c0,141.4-114.6,256-256,256C114.6,512,0,397.4,0,256C0,114.6,114.6,0,256,0z"
	/>
<g>
	<path class="st1" d="M201.1,328.3L201.1,328.3c-9.5-6-18.1-12.2-18.1-23.1c-0.2-18.7,15.1-22.8,19.7-38.8l0-0.5l0,0.5L201.1,328.3z
		"/>
	<path class="st2" d="M197.6,327.5L197.6,327.5c-0.9-13-0.7-24.2,7-30.1c13.5-10.3,23.9,1.9,38.8-0.5v0.3L197.6,327.5z"/>
	<path class="st1" d="M270.3,254.1c-4.6,4.6-13.7-0.5,8.6,31.5c22.3,32,44.1,54.3,48.7,49.7c4.6-4.6-6-36.9-31.6-66
		C270.7,240.6,274.9,249.8,270.3,254.1z"/>
	<path class="st3" d="M267.9,247.6c5.8,7.9,17.2,7.6,25.3-0.5c8.1-8.1,12.8-26.1,4.2-29.3c4.2,1.6-19-6-27.2,2.2
		C262.1,228.3,262.1,239.7,267.9,247.6z"/>
	<path class="st3" d="M255.6,287.3c7.7-15.5,10.2-35.6,8.4-50.8c32.7-6.8,26.7-12.5,38.1,36.7c6.7,28.5,4.4,61.9-26,70.9
		c-26.2,7.6-76.6-3.8-87.3-25.5C210.6,331.8,240.3,318,255.6,287.3z"/>
	<path class="st4" d="M295.3,219.1c0,2.7,1.9,5.2,3.9,5.2c2.1,0,3.9-2.2,3.9-5.2c0-2.7-1.9-1.4-3.9-1.4
		C297.2,218,295.3,216.4,295.3,219.1z"/>
	<path class="st5" d="M245.9,346.2l41.8-48.9l15.5,18.2c-3.5,13.3-11.6,24.2-27.2,28.8C267.7,346.7,257,347.3,245.9,346.2z"/>
	<path class="st3" d="M286.1,289.2c-6,3.5-14.4-1.9-4.6,21.2c9.7,23.1,22.5,38.8,28.5,35.3c6-3.5,3-25-6.7-48.1
		C293.5,274.5,292.1,285.6,286.1,289.2z"/>
	<ellipse class="st1" cx="295.3" cy="227" rx="0.9" ry="1.1"/>
	<path class="st1" d="M292.1,229.4c-0.5,0-0.9,0.5-0.9,1.1s0.4,1.1,0.9,1.1c0.5,0,0.9-0.5,0.9-1.1S292.6,229.4,292.1,229.4z"/>
	<path class="st1" d="M296.7,231.1c-0.5,0-0.9,0.5-0.9,1.1s0.4,1.1,0.9,1.1c0.5,0,0.9-0.5,0.9-1.1S297.2,231.1,296.7,231.1z"/>
	<path class="st6" d="M303.6,307.1c-4.2-10.4-9.2-18.1-11-17c-1.9,1,0.1,10.3,4.3,20.8c4.2,10.4,9.2,18.1,11,17
		C309.7,326.9,307.8,317.6,303.6,307.1z"/>
	<path class="st6" d="M297.6,262.3c-1.6-8-3.9-14.3-5-14c-1.1,0.3-0.7,7.1,0.9,15.1c1.6,8,3.9,14.3,5,14
		C299.6,277.1,299.2,270.3,297.6,262.3z"/>
	<path class="st6" d="M301.8,284.3c-0.4-2.2-1.6-3.7-2.6-3.5c-1,0.3-1.4,2.3-1,4.5c0.4,2.2,1.6,3.7,2.6,3.5
		C301.8,288.5,302.3,286.5,301.8,284.3z"/>
	<path class="st6" d="M286.5,218c-2.7,0-4.9,0.6-4.9,1.4s2.2,1.4,4.9,1.4c2.7,0,4.9-0.6,4.9-1.4S289.2,218,286.5,218z"/>
	<path class="st6" d="M285.5,229.3c0.2-1.2-1.8-2.6-4.5-3.1c-2.7-0.5-4.9,0-5.1,1.2c-0.2,1.2,1.8,2.6,4.5,3.1
		C283.1,231,285.3,230.5,285.5,229.3z"/>
	<path class="st4" d="M281.4,221.8c-1.3,0-2.3,1.2-2.3,2.7c0,1.5,1,2.7,2.3,2.7c1.3,0,2.3-1.2,2.3-2.7
		C283.7,223,282.7,221.8,281.4,221.8z"/>
	<path class="st7" d="M281.9,222.1c-0.8,0-1.4,0.7-1.4,1.6c0,0.9,0.6,1.6,1.4,1.6c0.8,0,1.4-0.7,1.4-1.6
		C283.3,222.8,282.6,222.1,281.9,222.1z"/>
	<path class="st6" d="M271,278.6c-1.4,0-2.6,1.3-2.6,3c0,1.7,1.1,3,2.6,3c1.4,0,2.6-1.3,2.6-3C273.5,279.9,272.4,278.6,271,278.6z"
		/>
	<path class="st6" d="M273.1,272.9c-0.8,0-1.4,0.7-1.4,1.6c0,0.9,0.6,1.6,1.4,1.6s1.4-0.7,1.4-1.6
		C274.4,273.6,273.8,272.9,273.1,272.9z"/>
	<path class="st6" d="M274.9,268.8c-0.3,0-0.5,0.2-0.5,0.5c0,0.3,0.2,0.5,0.5,0.5c0.3,0,0.5-0.2,0.5-0.5
		C275.4,269,275.2,268.8,274.9,268.8z"/>
	<path class="st5" d="M270.5,295.7c-1,0-1.9,1-1.9,2.2c0,1.2,0.8,2.2,1.9,2.2s1.9-1,1.9-2.2S271.5,295.7,270.5,295.7z"/>
	<path class="st5" d="M264.2,302.5c-0.5,0-0.9,0.5-0.9,1.1c0,0.6,0.4,1.1,0.9,1.1c0.5,0,0.9-0.5,0.9-1.1
		C265.2,303,264.7,302.5,264.2,302.5z"/>
	<path class="st5" d="M268.9,269.6c-0.5,0-0.9,0.5-0.9,1.1c0,0.6,0.4,1.1,0.9,1.1c0.5,0,0.9-0.5,0.9-1.1S269.4,269.6,268.9,269.6z"
		/>
	<polygon class="st8" points="263.1,255 299.5,255 297.2,246.8 264,246.8 	"/>
	<polyline class="st9" points="295.6,246.8 264,246.8 263.1,255 	"/>
</g>
<path class="st10" d="M148.4,55.1c32.2,0,58.3,26.1,58.3,58.3c0,32.2-26.1,58.3-58.3,58.3c-32.2,0-58.3-26.1-58.3-58.3
	C90.1,81.2,116.2,55.1,148.4,55.1z"/>
<path class="st11" d="M148.4,63.8c27.4,0,49.6,22.2,49.6,49.6c0,27.4-22.2,49.6-49.6,49.6c-27.4,0-49.6-22.2-49.6-49.6
	C98.7,86,121,63.8,148.4,63.8z"/>
<g>
	<path class="st12" d="M472.6,144.5c2.7,0,5.3,0.4,7.5,1.2c1.6-1.1,3.6-1.9,5.9-2.3c4.7,9.6,8.9,19.6,12.4,29.9
		c-0.9,0.2-1.8,0.2-2.8,0.2c-3,0-5.7-0.8-7.6-2.2c-1.9,1.3-4.6,2.2-7.6,2.2c-2.8,0-5.4-0.7-7.3-2c-2,1.5-4.8,2.4-7.9,2.4
		c-2.9,0-5.6-0.8-7.5-2.1c-0.9,0.1-1.8,0.2-2.8,0.2c-7.1,0-12.8-3.9-12.8-8.7c0-4.8,5.7-8.7,12.8-8.7c0.4,0,0.8,0,1.1,0
		C456.8,148.9,463.9,144.5,472.6,144.5z"/>
	<path class="st12" d="M264.7,108c3.1,0,6.1,0.5,8.7,1.4c2.8-1.9,6.7-3.1,11-3.1c7.4,0,13.6,3.5,15.3,8.2c3.7,0.8,6.7,2.7,8,5.1
		c0.4,0,0.9,0,1.4,0c6.9,0,12.4,3.8,12.4,8.4c0,4.7-5.6,8.4-12.4,8.4c-2.1,0-4.1-0.4-5.9-1c-1.5,3.5-6.3,6.1-11.9,6.1
		c-3.4,0-6.6-1-8.8-2.5c-2.2,1.5-5.4,2.5-8.8,2.5c-3.3,0-6.3-0.9-8.5-2.3c-2.3,1.7-5.5,2.7-9.2,2.7c-3.4,0-6.5-0.9-8.7-2.4
		c-1,0.2-2.1,0.2-3.2,0.2c-8.2,0-14.8-4.5-14.8-10.1c0-5.6,6.6-10.1,14.8-10.1c0.4,0,0.9,0,1.3,0C246.5,113.1,254.7,108,264.7,108z"
		/>
</g>
<g>
	<path d="M263.6,36.3c0,0,5.9-1.3,10.9-0.3c5,1,10.1,5.1,15.7,5.4s4.4-1.8,4.4-1.8s-3.6,0.5-4.5-2.5c-0.9-3.1,3-5.5,9-9.7
		c6-4.2,7.2-8.4,6-11.1c0,0-1.1,1.7-6,4.3c-5,2.6-8.5,7.5-12.5,11c-3.9,3.5-4.1,3.7-7.8,3C275.1,33.8,267.2,32.6,263.6,36.3z"/>
	<path d="M213.9,79c0,0,5.9-1.3,10.9-0.3c5,0.9,10.1,5.1,15.7,5.4c5.6,0.3,4.4-1.8,4.4-1.8s-3.6,0.5-4.5-2.5c-0.9-3.1,3-5.5,9-9.7
		c6-4.2,7.2-8.4,6-11.1c0,0-1.1,1.7-6,4.3c-5,2.6-8.5,7.5-12.4,11c-3.9,3.5-4.1,3.7-7.8,3C225.5,76.4,217.5,75.3,213.9,79z"/>
	<path d="M324.8,63.2c0,0,5.9-1.3,10.9-0.3c5,0.9,10.1,5.1,15.7,5.4c5.6,0.3,4.4-1.8,4.4-1.8s-3.6,0.5-4.5-2.5c-0.9-3.1,3-5.5,9-9.7
		c6-4.2,7.2-8.4,6-11.1c0,0-1.1,1.7-6,4.3c-5,2.6-8.5,7.5-12.4,11c-3.9,3.5-4.1,3.7-7.8,3C336.3,60.6,328.4,59.5,324.8,63.2z"/>
</g>
<path class="st13" d="M0.1,261.8h511.8C508.8,400.5,395.4,512,256,512C116.6,512,3.2,400.5,0.1,261.8z"/>
<path class="st14" d="M9.2,324.2h493.6C473,432.5,373.8,512,256,512C138.2,512,39,432.5,9.2,324.2z"/>
<path class="st15" d="M34.9,385.1h442.2C432.7,461,350.3,512,256,512C161.7,512,79.3,461,34.9,385.1z"/>
<path class="st16" d="M81.6,443.4h348.9C384.7,485.9,323.4,512,256,512C188.6,512,127.3,485.9,81.6,443.4z"/>
<path class="st17" d="M148.4,73.1c22.3,0,40.3,18,40.3,40.3c0,22.3-18,40.3-40.3,40.3c-22.3,0-40.3-18-40.3-40.3
	C108.1,91.1,126.1,73.1,148.4,73.1z"/>
<g>
</g>
<g>
	<path class="st12" d="M393.3,70.8c3.1,0,6.1,0.5,8.7,1.4c2.8-1.9,6.7-3.1,11-3.1c7.4,0,13.6,3.5,15.3,8.2c3.7,0.8,6.7,2.7,8,5.1
		c0.4,0,0.9,0,1.4,0c3.3,0,6.3,0.9,8.6,2.3c1.1,1.3,2.3,2.5,3.4,3.8c0.3,0.7,0.5,1.5,0.5,2.3c0,4.7-5.6,8.4-12.4,8.4
		c-2.1,0-4.1-0.4-5.9-1c-1.5,3.5-6.3,6.1-11.9,6.1c-3.5,0-6.6-1-8.8-2.5c-2.3,1.5-5.4,2.5-8.8,2.5c-3.3,0-6.3-0.9-8.5-2.3
		c-2.3,1.7-5.5,2.7-9.2,2.7c-3.4,0-6.5-0.9-8.7-2.4c-1,0.2-2.1,0.2-3.2,0.2c-8.2,0-14.8-4.5-14.8-10.1c0-5.6,6.6-10.1,14.8-10.1
		c0.4,0,0.9,0,1.3,0C375,75.9,383.3,70.8,393.3,70.8z"/>
	<path class="st12" d="M76.3,131.3c3.1,0,6.1,0.5,8.7,1.4c2.8-1.9,6.7-3.1,11-3.1c7.4,0,13.6,3.5,15.3,8.2c3.7,0.8,6.7,2.7,8,5.1
		c0.4,0,0.9,0,1.4,0c6.9,0,12.4,3.8,12.4,8.4c0,4.7-5.6,8.4-12.4,8.4c-2.1,0-4.1-0.4-5.9-1c-1.5,3.5-6.3,6.1-11.9,6.1
		c-3.4,0-6.6-1-8.8-2.5c-2.3,1.5-5.4,2.5-8.8,2.5c-3.3,0-6.3-0.9-8.5-2.3c-2.3,1.7-5.5,2.7-9.2,2.7c-3.4,0-6.5-0.9-8.7-2.4
		c-1,0.2-2.1,0.2-3.2,0.2c-8.2,0-14.8-4.5-14.8-10.1c0-5.6,6.6-10.1,14.8-10.1c0.4,0,0.9,0,1.3,0C58.1,136.5,66.3,131.3,76.3,131.3z
		"/>
</g>
</svg>
