<?xml version="1.0" encoding="utf-8"?>
<!-- Generator: Adobe Illustrator 23.0.2, SVG Export Plug-In . SVG Version: 6.00 Build 0)  -->
<svg version="1.1" xmlns="http://www.w3.org/2000/svg" xmlns:xlink="http://www.w3.org/1999/xlink" x="0px" y="0px"
	 viewBox="0 0 550 385" style="enable-background:new 0 0 550 385;" xml:space="preserve">
<style type="text/css">
	.st0{fill-rule:evenodd;clip-rule:evenodd;fill:#FFFFFF;}
	.st1{fill-rule:evenodd;clip-rule:evenodd;fill:#E7E7E7;}
	.st2{fill-rule:evenodd;clip-rule:evenodd;fill:#E3C924;}
	.st3{fill-rule:evenodd;clip-rule:evenodd;fill:#88C057;}
	.st4{fill-rule:evenodd;clip-rule:evenodd;fill:#E24931;}
	.st5{fill:#FDD1A2;}
	.st6{fill:#E8C095;}
	.st7{fill:#2D3E56;}
	.st8{fill:#EBE5E3;}
	.st9{fill:#FFFFFF;}
	.st10{fill:#0F597A;}
	.st11{fill:#0D415E;}
	.st12{fill:#0E91AF;}
	.st13{fill:#00233F;}
	.st14{fill:#057091;}
	.st15{fill:#1AB9D3;}
	.st16{fill:#0A3856;}
	.st17{fill:#E29524;}
	.st18{fill:#E07127;}
	.st19{fill:#39B54A;}
	.st20{fill:url(#SVGID_1_);}
	.st21{fill:#88C057;}
	.st22{fill:#E24931;}
	.st23{fill-rule:evenodd;clip-rule:evenodd;fill:#455F85;}
	.st24{fill:#222F41;}
	.st25{fill:url(#SVGID_2_);}
	.st26{fill:#FFF8D5;}
	.st27{fill:#FFE3BA;}
	.st28{fill:#388CB3;}
	.st29{fill:#265D77;}
	.st30{fill:#FFD400;}
	.st31{fill:#FFAB2D;}
	.st32{fill:#6FC8F1;}
	.st33{fill:#4BBAED;}
	.st34{fill:#B7E4F8;}
	.st35{fill:#FF931E;}
</style>
<g id="background">
</g>
<g id="design">
	<g>
		<rect class="st0" width="550" height="385"/>
		<rect class="st1" width="550" height="28"/>
		<path class="st2" d="M31,10c-2.2,0-4,1.8-4,4c0,2.2,1.8,4,4,4c2.2,0,4-1.8,4-4C35,11.8,33.2,10,31,10"/>
		<path class="st3" d="M46.5,10c-2.2,0-4,1.8-4,4c0,2.2,1.8,4,4,4s4-1.8,4-4C50.5,11.8,48.7,10,46.5,10"/>
		<path class="st4" d="M15.5,10c-2.2,0-4,1.8-4,4c0,2.2,1.8,4,4,4c2.2,0,4-1.8,4-4C19.5,11.8,17.7,10,15.5,10"/>
		<path class="st5" d="M363.2,213.9c-5.5,7.3-16,8.8-23.3,3.3l-28-21c-7.3-5.5-8.8-16-3.3-23.3c5.5-7.3,16-8.8,23.3-3.3l28,21
			C367.2,196.1,368.7,206.6,363.2,213.9z"/>
		<path class="st5" d="M363.2,256.7c-5.5,7.3-16,8.8-23.3,3.3l-28-21c-7.3-5.5-8.8-16-3.3-23.3c5.5-7.3,16-8.8,23.3-3.3l28,21
			C367.2,238.9,368.7,249.4,363.2,256.7z"/>
		<path class="st5" d="M363.2,299.5c-5.5,7.3-16,8.8-23.3,3.3l-28-21c-7.3-5.5-8.8-16-3.3-23.3c5.5-7.3,16-8.8,23.3-3.3l28,21
			C367.2,281.7,368.7,292.2,363.2,299.5z"/>
		<path class="st6" d="M311.9,196.1c-7.3-5.5-8.8-16-3.3-23.3c5.5-7.3,16-8.8,23.3-3.3l17.6,13.2v37.7c-3.3-0.1-6.7-1.1-9.6-3.3
			L311.9,196.1z"/>
		<path class="st6" d="M311.9,239c-7.3-5.5-8.8-16-3.3-23.3c5.5-7.3,16-8.8,23.3-3.3l17.6,13.2v37.7c-3.3-0.1-6.7-1.1-9.6-3.3
			L311.9,239z"/>
		<path class="st5" d="M328.1,306.3V263H193v122h87.7v-33.5C310,351.5,328.1,325.5,328.1,306.3z"/>
		<path class="st6" d="M274.3,329.2c-23,24.3-72.3,15.1-72.3,15.1l34.7-62.8h91.5v16.7c0,10.1,0.1,21.9-8.8,31H274.3z"/>
		<path d="M327.3,60.9h-95c-9,0-16.4,7.4-16.4,16.4v201.9c0,9,7.4,16.4,16.4,16.4h95c9,0,16.3-7.4,16.3-16.4V77.3
			C343.6,68.3,336.3,60.9,327.3,60.9z"/>
		<rect x="227.2" y="97.3" class="st7" width="105.2" height="161.8"/>
		<path class="st8" d="M283.9,78.7c0,2.3-1.8,4.1-4.1,4.1c-2.3,0-4.1-1.8-4.1-4.1c0-2.3,1.8-4.1,4.1-4.1
			C282.1,74.5,283.9,76.4,283.9,78.7z"/>
		<path class="st8" d="M269.7,283c-2.5,0-4.5-2-4.5-4.5v-1.3c0-2.5,2-4.5,4.5-4.5h20.2c2.5,0,4.5,2,4.5,4.5v1.3c0,2.5-2,4.5-4.5,4.5
			H269.7z"/>
		<rect x="321" y="103.3" class="st9" width="3.8" height="2.3"/>
		<path class="st9" d="M328.2,103.7h-0.8v-1.1h-7.2v3.8h7.2v-1.1h0.8V103.7z M327.1,106h-6.4v-3h6.4V106z M327.8,104.8h-0.4v-0.8
			h0.4V104.8z"/>
		<path class="st9" d="M232.8,103.2c-0.8,0-1.5,0.7-1.5,1.5c0,0.8,0.7,1.5,1.5,1.5c0.8,0,1.5-0.7,1.5-1.5
			C234.3,103.9,233.6,103.2,232.8,103.2z"/>
		<path class="st9" d="M236.3,103.2c-0.8,0-1.5,0.7-1.5,1.5c0,0.8,0.7,1.5,1.5,1.5c0.8,0,1.5-0.7,1.5-1.5
			C237.8,103.9,237.1,103.2,236.3,103.2z"/>
		<path class="st9" d="M239.7,103.2c-0.8,0-1.5,0.7-1.5,1.5c0,0.8,0.7,1.5,1.5,1.5s1.5-0.7,1.5-1.5
			C241.2,103.9,240.6,103.2,239.7,103.2z"/>
		<path class="st9" d="M243.2,103.2c-0.8,0-1.5,0.7-1.5,1.5c0,0.8,0.7,1.5,1.5,1.5s1.5-0.7,1.5-1.5
			C244.7,103.9,244,103.2,243.2,103.2z"/>
		<path class="st10" d="M299.7,173.2L299.7,173.2c3.3-2,6.2-4,6.2-7.6c0.1-6.2-5.2-7.6-6.8-12.9v-0.2v0.2L299.7,173.2z"/>
		<path class="st11" d="M300.9,172.9L300.9,172.9c0.3-4.3,0.2-8-2.4-10c-4.6-3.4-8.2,0.6-13.3-0.2v0.1L300.9,172.9z"/>
		<path class="st10" d="M276,148.6c1.6,1.5,4.7-0.2-2.9,10.4c-7.6,10.6-15.1,18-16.7,16.5c-1.6-1.5,2.1-12.2,10.8-21.9
			C275.8,144.1,274.4,147.2,276,148.6z"/>
		<path class="st12" d="M276.8,146.5c-2,2.6-5.9,2.5-8.7-0.2c-2.8-2.7-4.4-8.6-1.4-9.7c-1.4,0.5,6.5-2,9.3,0.7
			C278.8,140.1,278.8,143.9,276.8,146.5z"/>
		<path class="st12" d="M281,159.6c-2.6-5.1-3.5-11.8-2.9-16.8c-11.2-2.2-9.2-4.1-13.1,12.1c-2.3,9.4-1.5,20.5,8.9,23.5
			c9,2.5,26.3-1.3,30-8.5C296.5,174.4,286.3,169.8,281,159.6z"/>
		<path class="st13" d="M267.4,137c0,0.9-0.6,1.7-1.4,1.7c-0.7,0-1.4-0.7-1.4-1.7c0-0.9,0.6-0.4,1.4-0.4
			C266.7,136.7,267.4,136.1,267.4,137z"/>
		<path class="st14" d="M284.3,179.1L270,162.9l-5.3,6c1.2,4.4,4,8,9.3,9.5C276.9,179.3,280.5,179.5,284.3,179.1z"/>
		<path class="st12" d="M270.6,160.2c2.1,1.2,4.9-0.6,1.6,7c-3.3,7.6-7.7,12.9-9.8,11.7c-2.1-1.2-1-8.3,2.3-15.9
			C268,155.4,268.5,159.1,270.6,160.2z"/>
		<path class="st10" d="M267.4,139.3c0.2,0,0.3,0.2,0.3,0.4s-0.1,0.4-0.3,0.4c-0.2,0-0.3-0.2-0.3-0.4S267.2,139.3,267.4,139.3z"/>
		<path class="st10" d="M268.5,140.5c0.2,0,0.3,0.2,0.3,0.4s-0.1,0.4-0.3,0.4c-0.2,0-0.3-0.2-0.3-0.4S268.3,140.5,268.5,140.5z"/>
		<path class="st10" d="M266.9,141c0.2,0,0.3,0.2,0.3,0.4s-0.1,0.4-0.3,0.4c-0.2,0-0.3-0.2-0.3-0.4S266.7,141,266.9,141z"/>
		<path class="st15" d="M264.5,166.2c1.5-3.5,3.1-6,3.8-5.6s0,3.4-1.5,6.9c-1.5,3.5-3.1,6-3.8,5.6
			C262.4,172.7,263.1,169.6,264.5,166.2z"/>
		<path class="st15" d="M266.6,151.3c0.6-2.7,1.3-4.7,1.7-4.6c0.4,0.1,0.2,2.3-0.3,5c-0.6,2.7-1.3,4.7-1.7,4.6S266,154,266.6,151.3z
			"/>
		<path class="st15" d="M265.2,158.6c0.2-0.7,0.6-1.2,0.9-1.1s0.5,0.8,0.3,1.5c-0.2,0.7-0.6,1.2-0.9,1.1S265,159.3,265.2,158.6z"/>
		<path class="st15" d="M270.4,136.7c0.9,0,1.7,0.2,1.7,0.4c0,0.2-0.7,0.4-1.7,0.4c-0.9,0-1.7-0.2-1.7-0.4
			C268.7,136.9,269.5,136.7,270.4,136.7z"/>
		<path class="st15" d="M270.7,140.4c-0.1-0.4,0.6-0.9,1.5-1c0.9-0.2,1.7,0,1.8,0.4c0.1,0.4-0.6,0.9-1.5,1
			C271.6,141,270.8,140.8,270.7,140.4z"/>
		<path class="st13" d="M272.2,137.9c0.4,0,0.8,0.4,0.8,0.9s-0.4,0.9-0.8,0.9c-0.4,0-0.8-0.4-0.8-0.9S271.7,137.9,272.2,137.9z"/>
		<path class="st16" d="M272,138c0.3,0,0.5,0.2,0.5,0.5c0,0.3-0.2,0.5-0.5,0.5c-0.3,0-0.5-0.2-0.5-0.5
			C271.5,138.3,271.7,138,272,138z"/>
		<path class="st15" d="M275.7,156.7c0.5,0,0.9,0.4,0.9,1c0,0.5-0.4,1-0.9,1c-0.5,0-0.9-0.4-0.9-1
			C274.9,157.2,275.3,156.7,275.7,156.7z"/>
		<path class="st15" d="M275,154.8c0.3,0,0.5,0.2,0.5,0.5c0,0.3-0.2,0.5-0.5,0.5s-0.5-0.2-0.5-0.5
			C274.5,155.1,274.8,154.8,275,154.8z"/>
		<path class="st15" d="M274.4,153.5c0.1,0,0.2,0.1,0.2,0.2c0,0.1-0.1,0.2-0.2,0.2c-0.1,0-0.2-0.1-0.2-0.2
			C274.2,153.6,274.3,153.5,274.4,153.5z"/>
		<path class="st14" d="M275.9,162.4c0.4,0,0.6,0.3,0.6,0.7s-0.3,0.7-0.6,0.7s-0.6-0.3-0.6-0.7S275.5,162.4,275.9,162.4z"/>
		<path class="st14" d="M278.1,164.6c0.2,0,0.3,0.2,0.3,0.4s-0.1,0.4-0.3,0.4c-0.2,0-0.3-0.2-0.3-0.4S277.9,164.6,278.1,164.6z"/>
		<ellipse class="st14" cx="276.5" cy="154.1" rx="0.3" ry="0.4"/>
		<polygon class="st17" points="278.5,148.9 265.9,148.9 266.7,146.2 278.1,146.2 		"/>
		<polyline class="st18" points="267.3,146.2 278.1,146.2 278.5,148.9 		"/>
		<polygon class="st19" points="263.3,129.5 262.7,130 264.1,131.7 264.1,131.7 264.1,131.7 266.7,129 266.3,128.4 264.2,130.1 		
			"/>
		
			<radialGradient id="SVGID_1_" cx="25" cy="442.5" r="1" gradientTransform="matrix(6.6226 0 0 -6.6225 98.984 3060.2629)" gradientUnits="userSpaceOnUse">
			<stop  offset="0" style="stop-color:#FFFFFF"/>
			<stop  offset="8.463693e-02" style="stop-color:#FFEDD9"/>
			<stop  offset="0.2079" style="stop-color:#FFD5A8"/>
			<stop  offset="0.3345" style="stop-color:#FFC17D"/>
			<stop  offset="0.4621" style="stop-color:#FFB05B"/>
			<stop  offset="0.5913" style="stop-color:#FFA340"/>
			<stop  offset="0.7225" style="stop-color:#FF9A2D"/>
			<stop  offset="0.857" style="stop-color:#FF9522"/>
			<stop  offset="1" style="stop-color:#FF931E"/>
		</radialGradient>
		<path class="st20" d="M264.5,123.2c-3.7,0-6.6,3-6.6,6.6c0,3.7,3,6.6,6.6,6.6c3.7,0,6.6-3,6.6-6.6
			C271.2,126.1,268.2,123.2,264.5,123.2z M264.5,133.5c-3.4,0-3.7-5.8-3.7-5.8l3.7-1.6h0l3.7,1.6C268.2,127.7,268,133.5,264.5,133.5
			z"/>
		<g>
			<path class="st9" d="M251.2,206.5l-0.8,2.5h-1.1l2.7-8.1h1.3l2.8,8.1h-1.1l-0.9-2.5H251.2z M253.9,205.7l-0.8-2.3
				c-0.2-0.5-0.3-1-0.4-1.5h0c-0.1,0.5-0.3,1-0.4,1.5l-0.8,2.3H253.9z"/>
		</g>
		<g>
			<path class="st9" d="M257.2,200.5h1.1v8.5h-1.1V200.5z"/>
			<path class="st9" d="M260,200.5h1.1v8.5H260V200.5z"/>
		</g>
		<g>
			<path class="st9" d="M268.1,206.1c0,2.1-1.5,3.1-2.9,3.1c-1.6,0-2.8-1.2-2.8-3c0-1.9,1.3-3.1,2.9-3.1
				C267,203.1,268.1,204.3,268.1,206.1z M263.5,206.2c0,1.3,0.7,2.2,1.8,2.2c1,0,1.8-0.9,1.8-2.3c0-1-0.5-2.2-1.7-2.2
				C264,203.9,263.5,205.1,263.5,206.2z"/>
		</g>
		<g>
			<path class="st9" d="M269.8,203.3l0.8,3c0.2,0.6,0.3,1.2,0.4,1.8h0c0.1-0.6,0.3-1.2,0.5-1.8l0.9-3h0.9l0.9,2.9
				c0.2,0.7,0.4,1.3,0.5,1.9h0c0.1-0.6,0.3-1.2,0.4-1.9l0.8-2.9h1l-1.9,5.8h-1l-0.9-2.8c-0.2-0.6-0.4-1.2-0.5-1.9h0
				c-0.1,0.7-0.3,1.3-0.5,1.9l-0.9,2.8h-1l-1.8-5.8H269.8z"/>
		</g>
		<g>
			<path class="st9" d="M280.8,201h1v7.2h3.5v0.9h-4.5V201z"/>
		</g>
		<g>
			<path class="st9" d="M291.5,206.1c0,2.1-1.5,3.1-2.9,3.1c-1.6,0-2.8-1.2-2.8-3c0-1.9,1.3-3.1,2.9-3.1
				C290.4,203.1,291.5,204.3,291.5,206.1z M286.9,206.2c0,1.3,0.7,2.2,1.8,2.2c1,0,1.8-0.9,1.8-2.3c0-1-0.5-2.2-1.7-2.2
				C287.4,203.9,286.9,205.1,286.9,206.2z"/>
		</g>
		<g>
			<path class="st9" d="M297.8,203.3c0,0.4,0,0.9,0,1.6v3.4c0,1.3-0.3,2.1-0.8,2.7c-0.6,0.5-1.4,0.7-2.1,0.7c-0.7,0-1.5-0.2-1.9-0.5
				l0.3-0.8c0.4,0.2,1,0.5,1.7,0.5c1.1,0,1.9-0.6,1.9-2v-0.6h0c-0.3,0.5-0.9,1-1.8,1c-1.4,0-2.5-1.2-2.5-2.8c0-2,1.3-3.1,2.6-3.1
				c1,0,1.6,0.5,1.8,1h0l0-0.9H297.8z M296.8,205.6c0-0.2,0-0.3-0.1-0.5c-0.2-0.6-0.7-1.1-1.5-1.1c-1,0-1.7,0.9-1.7,2.2
				c0,1.1,0.6,2.1,1.7,2.1c0.6,0,1.2-0.4,1.5-1.1c0.1-0.2,0.1-0.4,0.1-0.6V205.6z"/>
		</g>
		<g>
			<path class="st9" d="M300.7,201.6c0,0.4-0.3,0.6-0.7,0.6c-0.4,0-0.6-0.3-0.6-0.6c0-0.4,0.3-0.7,0.7-0.7
				C300.4,201,300.7,201.3,300.7,201.6z M299.5,209.1v-5.8h1.1v5.8H299.5z"/>
			<path class="st9" d="M302.3,204.8c0-0.6,0-1.1,0-1.6h0.9l0.1,1h0c0.3-0.6,1-1.1,1.9-1.1c0.8,0,2.1,0.5,2.1,2.5v3.5h-1.1v-3.3
				c0-0.9-0.3-1.7-1.3-1.7c-0.7,0-1.2,0.5-1.4,1.1c0,0.1-0.1,0.3-0.1,0.5v3.5h-1.1V204.8z"/>
			<path class="st9" d="M309.8,206.8l0-0.3c-0.1-0.6,0.1-1.4,0.7-2.1c0.5-0.6,0.8-1.1,0.8-1.6c0-0.6-0.4-1-1.1-1
				c-0.4,0-0.9,0.1-1.2,0.4l-0.3-0.8c0.4-0.3,1.1-0.5,1.7-0.5c1.4,0,2,0.9,2,1.8c0,0.8-0.5,1.4-1,2.1c-0.5,0.6-0.7,1.2-0.7,1.8
				l0,0.3H309.8z M309.5,208.5c0-0.4,0.3-0.8,0.7-0.8s0.7,0.3,0.7,0.8c0,0.4-0.3,0.7-0.7,0.7C309.8,209.2,309.5,208.9,309.5,208.5z"
				/>
		</g>
		<rect x="279.8" y="220.6" class="st21" width="52.6" height="38.7"/>
		<polygon class="st9" points="317.1,229.7 303.4,240.9 297.2,236.3 294.7,239 302.4,248 303.7,249.5 305.1,248 319.6,232.4 		"/>
		<rect x="227.2" y="220.6" class="st22" width="52.6" height="38.7"/>
		<polygon class="st9" points="257.2,239.6 262.9,233.9 259.1,230.1 253.4,235.8 247.7,230.1 243.9,233.9 249.6,239.6 243.9,245.3 
			247.7,249.1 253.4,243.4 259.1,249.1 262.9,245.3 		"/>
		<path class="st5" d="M238.6,276.7v-22.1c0-8.1,6.6-14.7,14.7-14.7h53.5v8c0,15.9-12.9,28.8-28.8,28.8H238.6z"/>
		<path class="st5" d="M216.1,172.4v96.9l25.8-23.8l25.8,7.6v53.2c0,50-58.8,45.2-74.7,45.2c0-20.1,0-124.8,0-124.8
			S191.4,178.5,216.1,172.4z"/>
		<rect x="183.5" y="362" class="st22" width="106.6" height="23"/>
		<path class="st23" d="M149.7,300c0,2.5-2.2,4.5-4.9,4.5H42.4c-2.7,0-4.9-2-4.9-4.5V120.9c0-2.5,2.2-4.5,4.9-4.5h102.4
			c2.7,0,4.9,2,4.9,4.5V300z"/>
		<rect x="57" y="230" class="st24" width="75" height="20"/>
		<path class="st9" d="M82.8,243.3c-0.5,0.5-1.2,0.7-2.1,0.7c-0.9,0-1.6-0.2-2.2-0.7c-0.5-0.4-0.8-1.1-0.8-2.1v-4.6h0.9v4.6
			c0,0.6,0.2,1.1,0.5,1.5c0.3,0.3,0.8,0.5,1.5,0.5c0.6,0,1.1-0.2,1.4-0.5c0.3-0.3,0.5-0.8,0.5-1.5v-4.6h1v4.6
			C83.6,242.2,83.3,242.9,82.8,243.3z"/>
		<path class="st9" d="M85.8,242.7c0.1,0.1,0.2,0.2,0.3,0.3c0.1,0.1,0.3,0.1,0.4,0.2c0.2,0,0.3,0.1,0.5,0.1c0.1,0,0.3,0,0.4,0
			c0.1,0,0.3-0.1,0.4-0.1c0.1-0.1,0.2-0.1,0.3-0.2c0.1-0.1,0.1-0.2,0.1-0.4c0-0.2-0.1-0.4-0.3-0.5c-0.2-0.1-0.4-0.2-0.6-0.3
			c-0.3-0.1-0.5-0.1-0.8-0.2c-0.3-0.1-0.6-0.1-0.8-0.2s-0.5-0.2-0.6-0.4S85,240.3,85,240c0-0.3,0.1-0.5,0.2-0.7
			c0.1-0.2,0.3-0.3,0.4-0.5s0.4-0.2,0.6-0.3s0.5-0.1,0.7-0.1c0.3,0,0.6,0,0.8,0.1c0.2,0,0.5,0.1,0.7,0.3c0.2,0.1,0.3,0.3,0.5,0.5
			s0.2,0.5,0.2,0.8h-0.9c0-0.2-0.1-0.3-0.1-0.4c-0.1-0.1-0.2-0.2-0.3-0.3c-0.1-0.1-0.2-0.1-0.4-0.1c-0.1,0-0.3,0-0.4,0
			c-0.1,0-0.3,0-0.4,0c-0.1,0-0.2,0.1-0.4,0.1c-0.1,0-0.2,0.1-0.3,0.2c-0.1,0.1-0.1,0.2-0.1,0.3c0,0.1,0.1,0.3,0.2,0.4
			c0.1,0.1,0.2,0.2,0.4,0.2c0.2,0.1,0.3,0.1,0.5,0.2c0.2,0,0.4,0.1,0.6,0.1c0.2,0,0.4,0.1,0.6,0.2c0.2,0.1,0.4,0.2,0.5,0.3
			s0.3,0.2,0.4,0.4c0.1,0.2,0.1,0.4,0.1,0.6c0,0.3-0.1,0.6-0.2,0.8s-0.3,0.4-0.5,0.5s-0.4,0.2-0.7,0.3c-0.3,0-0.5,0.1-0.8,0.1
			c-0.3,0-0.6,0-0.8-0.1c-0.3-0.1-0.5-0.2-0.7-0.3c-0.2-0.1-0.4-0.3-0.5-0.5c-0.1-0.2-0.2-0.5-0.2-0.8h0.9
			C85.7,242.4,85.8,242.5,85.8,242.7z"/>
		<path class="st9" d="M94.1,243.5c-0.4,0.3-0.9,0.4-1.5,0.4c-0.4,0-0.8-0.1-1.1-0.2c-0.3-0.1-0.6-0.3-0.8-0.6
			c-0.2-0.2-0.4-0.5-0.5-0.9c-0.1-0.3-0.2-0.7-0.2-1.1c0-0.4,0.1-0.8,0.2-1.1c0.1-0.3,0.3-0.6,0.5-0.8c0.2-0.2,0.5-0.4,0.8-0.6
			c0.3-0.1,0.6-0.2,1-0.2c0.5,0,0.8,0.1,1.1,0.3c0.3,0.2,0.5,0.4,0.7,0.7c0.2,0.3,0.3,0.6,0.4,1c0.1,0.3,0.1,0.7,0.1,1h-3.9
			c0,0.2,0,0.4,0.1,0.6c0.1,0.2,0.2,0.4,0.3,0.5s0.3,0.3,0.5,0.4c0.2,0.1,0.4,0.1,0.7,0.1c0.4,0,0.7-0.1,0.9-0.3s0.4-0.4,0.5-0.8
			h0.8C94.7,242.8,94.5,243.2,94.1,243.5z M93.9,240.2c-0.1-0.2-0.2-0.3-0.3-0.5c-0.1-0.1-0.3-0.2-0.5-0.3c-0.2-0.1-0.4-0.1-0.6-0.1
			c-0.2,0-0.4,0-0.6,0.1s-0.3,0.2-0.5,0.3s-0.2,0.3-0.3,0.5c-0.1,0.2-0.1,0.4-0.1,0.6h3C94,240.6,94,240.4,93.9,240.2z"/>
		<path class="st9" d="M96.8,238.7v1.1h0c0.2-0.4,0.5-0.7,0.8-0.9c0.3-0.2,0.7-0.3,1.1-0.3v0.9c-0.3,0-0.6,0-0.9,0.1
			c-0.2,0.1-0.4,0.2-0.6,0.4c-0.1,0.2-0.3,0.4-0.3,0.7c-0.1,0.3-0.1,0.6-0.1,0.9v2.3H96v-5.2H96.8z"/>
		<rect x="102.9" y="236.7" class="st9" width="1" height="7.1"/>
		<path class="st9" d="M108.1,236.7c1.1,0,1.9,0.3,2.5,0.8c0.6,0.6,0.9,1.4,0.9,2.6c0,0.6-0.1,1.1-0.2,1.6s-0.3,0.9-0.6,1.2
			c-0.3,0.3-0.6,0.6-1.1,0.7c-0.4,0.2-0.9,0.3-1.5,0.3h-2.5v-7.1H108.1z M108.2,243c0.1,0,0.2,0,0.4,0c0.2,0,0.3-0.1,0.5-0.1
			c0.2-0.1,0.4-0.2,0.5-0.3c0.2-0.1,0.3-0.3,0.5-0.5s0.3-0.5,0.3-0.8c0.1-0.3,0.1-0.7,0.1-1.1c0-0.4,0-0.8-0.1-1.1
			c-0.1-0.3-0.2-0.6-0.4-0.9c-0.2-0.2-0.4-0.4-0.7-0.5c-0.3-0.1-0.7-0.2-1.1-0.2h-1.6v5.5H108.2z"/>
		<path class="st21" d="M59.3,295.9c0,1.7,1.3,3,3,3h64.4c1.7,0,3-1.3,3-3v-34.6c0-1.7-1.3-3-3-3H62.3c-1.7,0-3,1.3-3,3V295.9z"/>
		<g>
			<path class="st9" d="M73.5,264.6h0.9v6.5h2.9v0.8h-3.7V264.6z"/>
		</g>
		<g>
			<path class="st9" d="M82.4,269.3c0,2-1.2,2.8-2.4,2.8c-1.3,0-2.3-1-2.3-2.7c0-1.8,1.1-2.8,2.4-2.8
				C81.5,266.6,82.4,267.7,82.4,269.3z M78.6,269.3c0,1.2,0.6,2,1.5,2c0.8,0,1.5-0.9,1.5-2c0-0.9-0.4-2-1.4-2S78.6,268.3,78.6,269.3
				z"/>
		</g>
		<g>
			<path class="st9" d="M87.6,266.7c0,0.4,0,0.8,0,1.4v3.1c0,1.2-0.2,2-0.7,2.4c-0.5,0.5-1.1,0.6-1.8,0.6c-0.6,0-1.2-0.2-1.6-0.4
				l0.2-0.7c0.3,0.2,0.8,0.4,1.4,0.4c0.9,0,1.6-0.5,1.6-1.8V271h0c-0.3,0.5-0.8,0.9-1.5,0.9c-1.2,0-2-1.1-2-2.6
				c0-1.8,1.1-2.8,2.2-2.8c0.8,0,1.3,0.5,1.5,0.9h0l0-0.8H87.6z M86.7,268.8c0-0.2,0-0.3,0-0.4c-0.2-0.6-0.6-1-1.2-1
				c-0.8,0-1.4,0.8-1.4,2c0,1,0.5,1.9,1.4,1.9c0.5,0,1-0.4,1.2-1c0-0.2,0.1-0.3,0.1-0.5V268.8z"/>
		</g>
		<g>
			<path class="st9" d="M90,265.2c0,0.3-0.2,0.6-0.6,0.6c-0.3,0-0.5-0.3-0.5-0.6c0-0.3,0.2-0.6,0.5-0.6
				C89.8,264.6,90,264.9,90,265.2z M89,272v-5.3h0.9v5.3H89z"/>
			<path class="st9" d="M91.3,268.1c0-0.5,0-1,0-1.4h0.8l0,0.9h0c0.2-0.5,0.8-1,1.6-1c0.7,0,1.7,0.4,1.7,2.2v3.1h-0.9v-3
				c0-0.8-0.3-1.6-1.1-1.6c-0.6,0-1,0.4-1.2,1c0,0.1-0.1,0.3-0.1,0.4v3.2h-0.9V268.1z"/>
			<path class="st9" d="M99.3,266.7l0.6,2.7c0.1,0.6,0.3,1.1,0.4,1.7h0c0.1-0.5,0.3-1.1,0.4-1.7l0.8-2.7h0.7l0.7,2.6
				c0.2,0.6,0.3,1.2,0.4,1.7h0c0.1-0.5,0.2-1.1,0.4-1.7l0.7-2.6h0.9l-1.6,5.3H103l-0.7-2.5c-0.2-0.6-0.3-1.1-0.4-1.7h0
				c-0.1,0.6-0.3,1.2-0.4,1.7l-0.8,2.5h-0.8l-1.5-5.3H99.3z"/>
			<path class="st9" d="M107.2,265.2c0,0.3-0.2,0.6-0.6,0.6c-0.3,0-0.5-0.3-0.5-0.6c0-0.3,0.2-0.6,0.5-0.6
				C107,264.6,107.2,264.9,107.2,265.2z M106.3,272v-5.3h0.9v5.3H106.3z"/>
			<path class="st9" d="M109.6,265.2v1.5h1.3v0.7h-1.3v2.8c0,0.7,0.2,1,0.7,1c0.2,0,0.4,0,0.5-0.1l0,0.7c-0.2,0.1-0.4,0.1-0.8,0.1
				c-0.4,0-0.7-0.1-0.9-0.4c-0.2-0.3-0.3-0.8-0.3-1.4v-2.9H108v-0.7h0.7v-1.3L109.6,265.2z"/>
			<path class="st9" d="M111.9,264.2h0.9v3.3h0c0.1-0.3,0.4-0.5,0.6-0.7c0.3-0.2,0.6-0.3,0.9-0.3c0.6,0,1.7,0.4,1.7,2.3v3.1h-0.9v-3
				c0-0.9-0.3-1.6-1.1-1.6c-0.6,0-1,0.4-1.2,1c-0.1,0.1-0.1,0.3-0.1,0.5v3.2h-0.9V264.2z"/>
		</g>
		<path class="st10" d="M82.8,290.7L82.8,290.7c1-0.6,1.9-1.3,1.9-2.4c0-1.9-1.6-2.4-2.1-4v-0.1v0.1L82.8,290.7z"/>
		<path class="st11" d="M83.2,290.6L83.2,290.6c0.1-1.4,0.1-2.5-0.8-3.1c-1.5-1.1-2.6,0.2-4.2-0.1v0L83.2,290.6z"/>
		<path class="st10" d="M75.3,283c0.5,0.5,1.5-0.1-0.9,3.3c-2.4,3.3-4.8,5.6-5.3,5.2c-0.5-0.5,0.6-3.8,3.4-6.9
			C75.3,281.6,74.8,282.5,75.3,283z"/>
		<path class="st12" d="M75.6,282.3c-0.6,0.8-1.9,0.8-2.7-0.1c-0.9-0.8-1.4-2.7-0.4-3c-0.5,0.2,2-0.6,2.9,0.2
			C76.2,280.3,76.2,281.5,75.6,282.3z"/>
		<path class="st12" d="M76.9,286.4c-0.8-1.6-1.1-3.7-0.9-5.3c-3.5-0.7-2.9-1.3-4.1,3.8c-0.7,3-0.5,6.4,2.8,7.4
			c2.8,0.8,8.2-0.4,9.4-2.7C81.8,291,78.6,289.6,76.9,286.4z"/>
		<path class="st13" d="M72.6,279.3c0,0.3-0.2,0.5-0.4,0.5s-0.4-0.2-0.4-0.5c0-0.3,0.2-0.1,0.4-0.1C72.4,279.2,72.6,279,72.6,279.3z
			"/>
		<path class="st14" d="M78,292.5l-4.5-5.1l-1.7,1.9c0.4,1.4,1.3,2.5,2.9,3C75.6,292.6,76.8,292.6,78,292.5z"/>
		<path class="st12" d="M73.6,286.6c0.7,0.4,1.6-0.2,0.5,2.2c-1,2.4-2.4,4-3.1,3.7c-0.6-0.4-0.3-2.6,0.7-5
			C72.8,285.1,73,286.2,73.6,286.6z"/>
		<polygon class="st10" points="72.6,280 72.7,280.1 72.6,280.3 72.5,280.1 		"/>
		<polygon class="st10" points="73,280.4 73.1,280.5 73,280.6 72.9,280.5 		"/>
		<polygon class="st10" points="72.5,280.6 72.6,280.7 72.5,280.8 72.4,280.7 		"/>
		<path class="st15" d="M71.8,288.5c0.5-1.1,1-1.9,1.2-1.8c0.2,0.1,0,1.1-0.5,2.2s-1,1.9-1.2,1.8C71.1,290.5,71.3,289.6,71.8,288.5z
			"/>
		<path class="st15" d="M72.4,283.8c0.2-0.8,0.4-1.5,0.5-1.5c0.1,0,0.1,0.7-0.1,1.6c-0.2,0.8-0.4,1.5-0.5,1.5
			C72.2,285.3,72.2,284.6,72.4,283.8z"/>
		<path class="st15" d="M71.9,286.1c0-0.2,0.2-0.4,0.3-0.4c0.1,0,0.2,0.2,0.1,0.5c0,0.2-0.2,0.4-0.3,0.4
			C71.9,286.5,71.9,286.3,71.9,286.1z"/>
		<path class="st15" d="M73.6,279.2c0.3,0,0.5,0.1,0.5,0.1s-0.2,0.1-0.5,0.1s-0.5-0.1-0.5-0.1S73.3,279.2,73.6,279.2z"/>
		<path class="st15" d="M73.7,280.4c0-0.1,0.2-0.3,0.5-0.3c0.3-0.1,0.5,0,0.6,0.1c0,0.1-0.2,0.3-0.5,0.3
			C74,280.6,73.7,280.5,73.7,280.4z"/>
		<ellipse class="st13" cx="74.1" cy="279.9" rx="0.3" ry="0.3"/>
		<ellipse class="st16" cx="74.1" cy="279.8" rx="0.1" ry="0.2"/>
		<ellipse class="st15" cx="75.3" cy="285.8" rx="0.3" ry="0.3"/>
		<path class="st15" d="M75,284.9c0.1,0,0.1,0.1,0.1,0.2s-0.1,0.2-0.1,0.2c-0.1,0-0.2-0.1-0.2-0.2S75,284.9,75,284.9z"/>
		<polygon class="st15" points="74.8,284.5 74.9,284.5 74.8,284.6 74.8,284.5 		"/>
		<path class="st14" d="M75.3,287.3c0.1,0,0.2,0.1,0.2,0.2c0,0.1-0.1,0.2-0.2,0.2s-0.2-0.1-0.2-0.2
			C75.1,287.4,75.2,287.3,75.3,287.3z"/>
		<polygon class="st14" points="76,288 76.1,288.1 76,288.2 75.9,288.1 		"/>
		<polygon class="st14" points="75.5,284.6 75.6,284.7 75.5,284.8 75.4,284.7 		"/>
		<polygon class="st17" points="76.1,283 72.2,283 72.4,282.2 76,282.2 		"/>
		<polyline class="st18" points="72.6,282.2 76,282.2 76.1,283 		"/>
		<g>
			<path class="st11" d="M86.5,282.4c0.5-0.1,1.2-0.2,2-0.2c1.1,0,1.8,0.2,2.3,0.7c0.4,0.4,0.7,0.9,0.7,1.6c0,0.9-0.5,1.7-1.4,2v0
				c0.8,0.2,1.7,0.9,1.7,2.3c0,0.8-0.3,1.4-0.7,1.9c-0.6,0.6-1.5,0.9-2.9,0.9c-0.7,0-1.3-0.1-1.7-0.1V282.4z M87.6,286.2h1
				c1.1,0,1.8-0.7,1.8-1.6c0-1.1-0.7-1.5-1.8-1.5c-0.5,0-0.8,0-1,0.1V286.2z M87.6,290.6c0.2,0,0.5,0.1,0.9,0.1
				c1.1,0,2.2-0.5,2.2-1.8c0-1.3-1-1.8-2.2-1.8h-0.9V290.6z"/>
		</g>
		<g>
			<path class="st11" d="M94.2,283c0,0.4-0.3,0.7-0.7,0.7c-0.4,0-0.7-0.3-0.7-0.7c0-0.4,0.3-0.8,0.7-0.8
				C93.9,282.2,94.2,282.6,94.2,283z M93,291.5v-6.6h1.1v6.6H93z"/>
		</g>
		<g>
			<path class="st11" d="M96.9,282.9v1.9h1.6v0.9h-1.6v3.6c0,0.8,0.2,1.3,0.8,1.3c0.3,0,0.5,0,0.6-0.1l0.1,0.9
				c-0.2,0.1-0.5,0.2-1,0.2c-0.5,0-0.9-0.2-1.2-0.5c-0.3-0.4-0.4-0.9-0.4-1.7v-3.6h-0.9v-0.9h0.9v-1.6L96.9,282.9z"/>
		</g>
		<g>
			<path class="st11" d="M99.4,290c0.5,0.3,1.2,0.6,1.9,0.6c1.1,0,1.8-0.6,1.8-1.6c0-0.9-0.4-1.4-1.6-1.8c-1.4-0.5-2.2-1.3-2.2-2.6
				c0-1.4,1.1-2.5,2.7-2.5c0.9,0,1.5,0.2,1.9,0.5l-0.3,1c-0.3-0.2-0.8-0.4-1.6-0.4c-1.1,0-1.6,0.8-1.6,1.4c0,0.9,0.5,1.3,1.7,1.8
				c1.4,0.6,2.1,1.4,2.1,2.7c0,1.4-1,2.7-2.9,2.7c-0.8,0-1.7-0.3-2.1-0.6L99.4,290z"/>
		</g>
		<g>
			<path class="st11" d="M106,288.4c0,1.6,1,2.3,2.1,2.3c0.8,0,1.3-0.2,1.7-0.3l0.2,0.9c-0.4,0.2-1,0.4-2,0.4c-1.9,0-3-1.3-3-3.3
				s1.1-3.6,2.8-3.6c2,0,2.5,1.9,2.5,3.1c0,0.2,0,0.4,0,0.6H106z M109.2,287.5c0-0.8-0.3-2-1.5-2c-1.1,0-1.6,1.1-1.7,2H109.2z"/>
		</g>
		<g>
			<path class="st11" d="M114.6,291.5l-0.1-0.8h0c-0.3,0.5-1,1-1.8,1c-1.2,0-1.8-0.9-1.8-1.9c0-1.6,1.3-2.5,3.6-2.5v-0.1
				c0-0.5-0.1-1.5-1.4-1.5c-0.6,0-1.1,0.2-1.6,0.5l-0.2-0.8c0.5-0.4,1.2-0.6,2-0.6c1.8,0,2.3,1.4,2.3,2.7v2.5c0,0.6,0,1.1,0.1,1.6
				H114.6z M114.5,288.1c-1.2,0-2.6,0.2-2.6,1.5c0,0.8,0.5,1.2,1,1.2c0.8,0,1.3-0.5,1.5-1.1c0-0.1,0.1-0.3,0.1-0.4V288.1z"/>
		</g>
		<g>
			<path class="st11" d="M117,281.7h1.1v9.7H117V281.7z"/>
		</g>
		<polygon class="st19" points="71.4,277 71.2,277.1 71.6,277.6 71.6,277.6 71.6,277.6 72.4,276.8 72.3,276.6 71.6,277.2 		"/>
		
			<radialGradient id="SVGID_2_" cx="25" cy="442.5" r="1" gradientTransform="matrix(2.0778 0 0 2.0777 19.808 -642.3524)" gradientUnits="userSpaceOnUse">
			<stop  offset="0" style="stop-color:#FFFFFF"/>
			<stop  offset="8.489323e-02" style="stop-color:#FFEDD9"/>
			<stop  offset="0.2081" style="stop-color:#FFD5A8"/>
			<stop  offset="0.3345" style="stop-color:#FFC17D"/>
			<stop  offset="0.4621" style="stop-color:#FFB05B"/>
			<stop  offset="0.5911" style="stop-color:#FFA340"/>
			<stop  offset="0.7223" style="stop-color:#FF9A2D"/>
			<stop  offset="0.8569" style="stop-color:#FF9522"/>
			<stop  offset="1" style="stop-color:#FF931E"/>
		</radialGradient>
		<path class="st25" d="M71.8,275c-1.1,0-2.1,0.9-2.1,2.1c0,1.1,0.9,2.1,2.1,2.1s2.1-0.9,2.1-2.1C73.8,275.9,72.9,275,71.8,275z
			 M71.8,278.2c-1.1,0-1.1-1.8-1.1-1.8l1.1-0.5l1.1,0.5C72.9,276.4,72.8,278.2,71.8,278.2z"/>
		<circle class="st9" cx="94.5" cy="171.1" r="32"/>
		<polygon class="st26" points="114.9,189.8 74.9,189.8 74.9,164.6 94.9,149.8 114.9,164.6 		"/>
		<polygon class="st27" points="114.9,164.6 94.9,149.8 94.9,189.8 114.9,189.8 		"/>
		<path class="st28" d="M94.9,158.7c-3.7,0-6.6,3-6.6,6.6v5.1h2.3v-5.1c0-2.4,1.9-4.3,4.3-4.3c2.4,0,4.3,1.9,4.3,4.3v5.1h2.3v-5.1
			C101.6,161.6,98.6,158.7,94.9,158.7z"/>
		<path class="st29" d="M99.2,165.3v5.1h2.3v-5.1c0-3.7-3-6.6-6.6-6.6v2.3C97.3,161,99.2,162.9,99.2,165.3z"/>
		<rect x="86" y="168" class="st30" width="18" height="14.1"/>
		<rect x="94.9" y="168" class="st31" width="9" height="14.1"/>
		<polygon class="st32" points="114.9,189.8 74.9,189.8 74.9,165.4 94.9,178.7 114.9,165.4 		"/>
		<polygon class="st33" points="114.9,189.8 114.9,165.4 94.9,178.7 94.9,189.8 		"/>
		<path class="st34" d="M114.9,189.8h-40v-1.9l18-12.3c1.2-0.8,2.8-0.8,4,0l18,12.3V189.8z"/>
		<path class="st32" d="M94.9,175v14.7h20v-1.9l-18-12.3C96.3,175.2,95.6,175,94.9,175z"/>
		<path class="st23" d="M513.1,300c0,2.5-2.2,4.5-4.9,4.5H405.8c-2.7,0-4.9-2-4.9-4.5V120.9c0-2.5,2.2-4.5,4.9-4.5h102.4
			c2.7,0,4.9,2,4.9,4.5V300z"/>
		<circle class="st9" cx="457.9" cy="171.1" r="32"/>
		<polygon class="st26" points="478.3,189.8 438.3,189.8 438.3,164.6 458.3,149.8 478.3,164.6 		"/>
		<polygon class="st27" points="478.3,164.6 458.3,149.8 458.3,189.8 478.3,189.8 		"/>
		<path class="st28" d="M458.3,158.7c-3.7,0-6.6,3-6.6,6.6v5.1h2.3v-5.1c0-2.4,1.9-4.3,4.3-4.3c2.4,0,4.3,1.9,4.3,4.3v5.1h2.3v-5.1
			C465,161.6,462,158.7,458.3,158.7z"/>
		<path class="st29" d="M462.6,165.3v5.1h2.3v-5.1c0-3.7-3-6.6-6.6-6.6v2.3C460.7,161,462.6,162.9,462.6,165.3z"/>
		<rect x="449.4" y="168" class="st30" width="18" height="14.1"/>
		<rect x="458.3" y="168" class="st31" width="9" height="14.1"/>
		<polygon class="st32" points="478.3,189.8 438.3,189.8 438.3,165.4 458.3,178.7 478.3,165.4 		"/>
		<polygon class="st33" points="478.3,189.8 478.3,165.4 458.3,178.7 458.3,189.8 		"/>
		<path class="st34" d="M478.3,189.8h-40v-1.9l18-12.3c1.2-0.8,2.8-0.8,4,0l18,12.3V189.8z"/>
		<path class="st32" d="M458.3,175v14.7h20v-1.9l-18-12.3C459.7,175.2,459,175,458.3,175z"/>
		<g>
			<path class="st9" d="M429.3,288l-1,2.9h-1.2l3.2-9.3h1.4l3.2,9.3h-1.3l-1-2.9H429.3z M432.3,287.1l-0.9-2.7
				c-0.2-0.6-0.3-1.2-0.5-1.7h0c-0.1,0.6-0.3,1.1-0.5,1.7l-0.9,2.7H432.3z"/>
		</g>
		<g>
			<path class="st9" d="M441.6,289.1c0,0.7,0,1.3,0.1,1.8h-1.1l-0.1-1.1h0c-0.3,0.5-1,1.2-2.2,1.2c-1.1,0-2.3-0.6-2.3-2.9v-3.9h1.2
				v3.7c0,1.3,0.4,2.1,1.5,2.1c0.8,0,1.4-0.6,1.6-1.1c0.1-0.2,0.1-0.4,0.1-0.6v-4.1h1.2V289.1z"/>
			<path class="st9" d="M445.1,282.4v1.9h1.7v0.9h-1.7v3.6c0,0.8,0.2,1.3,0.9,1.3c0.3,0,0.6,0,0.7-0.1l0.1,0.9
				c-0.2,0.1-0.6,0.2-1.1,0.2c-0.6,0-1-0.2-1.3-0.5c-0.3-0.4-0.5-1-0.5-1.7v-3.6h-1v-0.9h1v-1.6L445.1,282.4z"/>
			<path class="st9" d="M448.2,281.2h1.2v4.2h0c0.2-0.3,0.5-0.6,0.9-0.9c0.4-0.2,0.8-0.3,1.2-0.3c0.9,0,2.3,0.6,2.3,2.9v4h-1.2v-3.8
				c0-1.1-0.4-2-1.5-2c-0.8,0-1.4,0.6-1.6,1.2c-0.1,0.2-0.1,0.3-0.1,0.6v4h-1.2V281.2z"/>
			<path class="st9" d="M461.9,287.6c0,2.5-1.7,3.5-3.3,3.5c-1.8,0-3.2-1.3-3.2-3.4c0-2.2,1.5-3.5,3.3-3.5
				C460.6,284.1,461.9,285.5,461.9,287.6z M456.6,287.6c0,1.5,0.8,2.6,2,2.6c1.2,0,2-1.1,2-2.6c0-1.1-0.6-2.6-2-2.6
				C457.2,285,456.6,286.4,456.6,287.6z"/>
		</g>
		<g>
			<path class="st9" d="M463.4,286.4c0-0.8,0-1.5-0.1-2.1h1.1l0,1.3h0.1c0.3-0.9,1-1.5,1.8-1.5c0.1,0,0.2,0,0.3,0v1.1
				c-0.1,0-0.2,0-0.4,0c-0.9,0-1.5,0.6-1.6,1.6c0,0.2-0.1,0.4-0.1,0.6v3.6h-1.2V286.4z"/>
		</g>
		<g>
			<path class="st9" d="M469.3,282.4c0,0.4-0.3,0.7-0.8,0.7c-0.4,0-0.7-0.3-0.7-0.7c0-0.4,0.3-0.8,0.8-0.8
				C469.1,281.6,469.3,282,469.3,282.4z M468,291v-6.7h1.2v6.7H468z"/>
		</g>
		<g>
			<path class="st9" d="M470.5,290.3l3-3.9c0.3-0.4,0.6-0.7,0.9-1v0h-3.6v-1h5.1l0,0.8l-3,3.9c-0.3,0.4-0.6,0.7-0.9,1v0h3.9v1h-5.4
				V290.3z"/>
		</g>
		<g>
			<path class="st9" d="M477.7,287.8c0,1.6,1.1,2.3,2.3,2.3c0.9,0,1.4-0.2,1.9-0.3l0.2,0.9c-0.4,0.2-1.2,0.4-2.2,0.4
				c-2.1,0-3.3-1.4-3.3-3.4c0-2,1.2-3.6,3.1-3.6c2.2,0,2.8,1.9,2.8,3.1c0,0.2,0,0.4,0,0.6H477.7z M481.3,287c0-0.8-0.3-2-1.7-2
				c-1.2,0-1.8,1.1-1.9,2H481.3z"/>
			<path class="st9" d="M489.7,281.2v8.1c0,0.6,0,1.3,0.1,1.7h-1.1l-0.1-1.2h0c-0.4,0.7-1.2,1.3-2.3,1.3c-1.6,0-2.9-1.4-2.9-3.4
				c0-2.2,1.4-3.6,3-3.6c1,0,1.7,0.5,2,1h0v-4H489.7z M488.5,287c0-0.2,0-0.4-0.1-0.5c-0.2-0.8-0.8-1.4-1.8-1.4c-1.3,0-2,1.1-2,2.6
				c0,1.4,0.7,2.5,2,2.5c0.8,0,1.6-0.5,1.8-1.5c0-0.2,0.1-0.3,0.1-0.5V287z"/>
		</g>
		<path class="st35" d="M458.3,213.9l-30,12.8c0,0,2,47.4,30,47.4c28,0,30-47.4,30-47.4L458.3,213.9L458.3,213.9z"/>
		<polygon class="st19" points="448,241.7 443.1,246 455,259.3 455,259.3 455,259.3 476.3,237.6 472.5,232.6 455.2,246.9 		"/>
	</g>
</g>
<g id="copyright">
</g>
</svg>
