<?xml version="1.0" encoding="iso-8859-1"?>
<!-- Generator: Adobe Illustrator 19.0.0, SVG Export Plug-In . SVG Version: 6.00 Build 0)  -->
<svg version="1.1" id="Capa_1" xmlns="http://www.w3.org/2000/svg" xmlns:xlink="http://www.w3.org/1999/xlink" x="0px" y="0px"
	 viewBox="0 0 512 512" style="enable-background:new 0 0 512 512;" xml:space="preserve">
<rect y="49.496" style="fill:#CBEBFA;" width="512" height="347.11"/>
<rect x="255.54" y="49.496" style="fill:#93D6F4;" width="256.46" height="347.11"/>
<polygon style="fill:#4BBAED;" points="0,49.494 256,251.934 512,49.494 "/>
<path style="fill:#FFDB2D;" d="M200.119,338.474v-97.248c0-30.813,25.068-55.881,55.881-55.881v-30
	c-47.354,0-85.881,38.526-85.881,85.881v97.249h30V338.474z"/>
<path style="fill:#FFB22D;" d="M304.523,213.563c4.672,8.163,7.358,17.602,7.358,27.663v97.249h30v-97.249
	c0-17.084-5.034-33.005-13.669-46.396L304.523,213.563z"/>
<rect x="131.6" y="314.106" style="fill:#00C47A;" width="248.81" height="148.4"/>
<rect x="255.97" y="314.106" style="fill:#00935C;" width="124.43" height="148.4"/>
<rect x="241" y="361.516" style="fill:#333333;" width="30" height="53.56"/>
<polygon style="fill:#41A0CC;" points="256,49.494 256,251.934 512,49.494 "/>
<g>
</g>
<g>
</g>
<g>
</g>
<g>
</g>
<g>
</g>
<g>
</g>
<g>
</g>
<g>
</g>
<g>
</g>
<g>
</g>
<g>
</g>
<g>
</g>
<g>
</g>
<g>
</g>
<g>
</g>
</svg>
