<?xml version="1.0" encoding="utf-8"?>
<!-- Generator: Adobe Illustrator 23.0.2, SVG Export Plug-In . SVG Version: 6.00 Build 0)  -->
<svg version="1.1" id="Capa_1" xmlns="http://www.w3.org/2000/svg" xmlns:xlink="http://www.w3.org/1999/xlink" x="0px" y="0px"
	 viewBox="0 0 490.7 490.7" style="enable-background:new 0 0 490.7 490.7;" xml:space="preserve">
<style type="text/css">
	.st0{fill:#CFD8DC;}
	.st1{fill:#64B5F6;}
	.st2{fill:#FAFAFA;}
	.st3{fill:#2196F3;}
	.st4{fill:#455A64;}
	.st5{fill:#FF4949;}
</style>
<path class="st0" d="M127.9,95.3h234.8c18,0,32.6,14.6,32.6,32.6v234.8c0,18-14.6,32.6-32.6,32.6H127.9c-18,0-32.6-14.6-32.6-32.6
	V127.9C95.3,109.9,109.9,95.3,127.9,95.3z"/>
<path class="st1" d="M154,277.9h182.6c18,0,32.6,14.6,32.6,32.6v26.1c0,18-14.6,32.6-32.6,32.6H154c-18,0-32.6-14.6-32.6-32.6v-26.1
	C121.4,292.5,136,277.9,154,277.9z"/>
<circle class="st2" cx="245.3" cy="193.2" r="65.2"/>
<g>
	<path class="st3" d="M245.3,264.9c-39.6,0-71.7-32.1-71.7-71.7s32.1-71.7,71.7-71.7s71.7,32.1,71.7,71.7
		C317,232.8,284.9,264.8,245.3,264.9z M245.3,134.5c-32.4,0-58.7,26.3-58.7,58.7s26.3,58.7,58.7,58.7s58.7-26.3,58.7-58.7
		S277.8,134.5,245.3,134.5z"/>
	<circle class="st3" cx="245.3" cy="180.1" r="26.1"/>
	<path class="st3" d="M245.3,258.4c17.3,0,33.9-6.8,46.1-19.1c-8.6-25.4-36.1-39.1-61.6-30.6c-14.4,4.8-25.7,16.2-30.6,30.6
		C211.5,251.5,228,258.4,245.3,258.4z"/>
</g>
<g>
	<path class="st4" d="M184.7,305.9c-2.5-2.5-6.7-2.5-9.2,0l-8.4,8.4l-8.4-8.4c-2.6-2.5-6.7-2.4-9.2,0.2c-2.4,2.5-2.4,6.5,0,9.1
		l8.4,8.4l-8.4,8.4c-2.6,2.5-2.7,6.6-0.2,9.2c2.5,2.6,6.6,2.7,9.2,0.2c0.1-0.1,0.1-0.1,0.2-0.2l8.4-8.4l8.4,8.4
		c2.5,2.6,6.6,2.7,9.2,0.2c2.6-2.5,2.7-6.6,0.2-9.2c-0.1-0.1-0.1-0.1-0.2-0.2l-8.4-8.4l8.4-8.4C187.3,312.6,187.3,308.5,184.7,305.9
		C184.7,305.9,184.7,305.9,184.7,305.9z"/>
	<path class="st4" d="M236.9,305.9c-2.5-2.5-6.7-2.5-9.2,0l-8.4,8.4l-8.4-8.4c-2.6-2.5-6.7-2.4-9.2,0.2c-2.4,2.5-2.4,6.5,0,9.1
		l8.4,8.4l-8.4,8.4c-2.6,2.5-2.7,6.6-0.2,9.2c2.5,2.6,6.6,2.7,9.2,0.2c0.1-0.1,0.1-0.1,0.2-0.2l8.4-8.4l8.4,8.4
		c2.6,2.5,6.7,2.4,9.2-0.2c2.4-2.5,2.4-6.5,0-9.1l-8.4-8.4l8.4-8.4C239.4,312.6,239.5,308.5,236.9,305.9
		C236.9,305.9,236.9,305.9,236.9,305.9z"/>
	<path class="st4" d="M289.1,305.9c-2.5-2.5-6.7-2.5-9.2,0l-8.4,8.4l-8.4-8.4c-2.6-2.5-6.7-2.4-9.2,0.2c-2.4,2.5-2.4,6.5,0,9.1
		l8.4,8.4l-8.4,8.4c-2.6,2.5-2.7,6.6-0.2,9.2c2.5,2.6,6.6,2.7,9.2,0.2c0.1-0.1,0.1-0.1,0.2-0.2l8.4-8.4l8.4,8.4
		c2.6,2.5,6.7,2.4,9.2-0.2c2.4-2.5,2.4-6.5,0-9.1l-8.4-8.4l8.4-8.4C291.6,312.6,291.6,308.5,289.1,305.9
		C289.1,305.9,289.1,305.9,289.1,305.9z"/>
	<path class="st4" d="M332.8,323.6l8.4-8.4c2.5-2.6,2.4-6.7-0.2-9.2c-2.5-2.4-6.5-2.4-9.1,0l-8.4,8.4l-8.4-8.4
		c-2.6-2.5-6.7-2.4-9.2,0.2c-2.4,2.5-2.4,6.5,0,9.1l8.4,8.4l-8.4,8.4c-2.6,2.5-2.7,6.6-0.2,9.2c2.5,2.6,6.6,2.7,9.2,0.2
		c0.1-0.1,0.1-0.1,0.2-0.2l8.4-8.4l8.4,8.4c2.6,2.5,6.7,2.4,9.2-0.2c2.4-2.5,2.4-6.5,0-9.1L332.8,323.6z"/>
</g>
<g>
	<path class="st5" d="M403.5,93.1C360,49.6,302.5,26.8,244.9,26.8S129.9,49.6,86.3,93.1c-88.5,88.5-88.5,228.7,0,317.2
		c43.8,43.8,101.1,66.6,158.6,66.6s114.8-22.8,158.6-66.6C492.1,321.8,492.1,181.6,403.5,93.1z M123.5,130.3
		C157,97.1,200.9,79,244.9,79c34.6,0,69.4,11.4,99.5,32.8l-99.5,99.5L105.1,351.2C55.5,281.2,62.8,191.3,123.5,130.3z M366.3,373.1
		c-33.5,33.3-77.3,51.3-121.4,51.3c-34.6,0-69.4-11.4-99.5-32.8l239.4-239.4C434.3,222.2,427.1,312.1,366.3,373.1z"/>
</g>
</svg>
