<?xml version="1.0" encoding="iso-8859-1"?>
<!-- Generator: Adobe Illustrator 19.0.0, SVG Export Plug-In . SVG Version: 6.00 Build 0)  -->
<svg version="1.1" id="Capa_1" xmlns="http://www.w3.org/2000/svg" xmlns:xlink="http://www.w3.org/1999/xlink" x="0px" y="0px"
	 viewBox="0 0 512 512" style="enable-background:new 0 0 512 512;" xml:space="preserve">
<path style="fill:#EFE2DD;" d="M482,241.9V334l-16.8-2.1c-69.3-8.701-108.1-13.5-176.201-14.7H256l-39,0.298
	c-64.501,1.201-102.7,5.7-169.9,14.401L30.3,334L30,241.9l60-30h360.801L482,241.9z"/>
<path style="fill:#E1D3CE;" d="M482,241.9V334l-16.8-2.1c-69.3-8.701-108.1-13.5-176.201-14.7H256V211.9h194.801L482,241.9z"/>
<path style="fill:#FFEEE6;" d="M512,90.1v151.8H0V90.1c82.8,8.699,131.201,15.3,226.3,16.5h59.4
	C381.099,105.4,428.899,98.799,512,90.1z"/>
<path style="fill:#EFE2DD;" d="M512,90.1v151.8H256V106.6h29.7C381.099,105.4,428.899,98.799,512,90.1z"/>
<polygon style="fill:#FF4B00;" points="211,421.9 151,421.9 196,301.9 256,301.9 "/>
<polygon style="fill:#E61E14;" points="361,421.9 301,421.9 256,301.9 316,301.9 "/>
<rect x="226" y="91.9" style="fill:#FF4B00;" width="60" height="120"/>
<rect x="256" y="91.9" style="fill:#E61E14;" width="30" height="120"/>
<path style="fill:#FEDB41;" d="M256,181.9c-41.4,0-75,33.6-75,75s33.6,75,75,75s75-33.6,75-75S297.4,181.9,256,181.9z"/>
<path style="fill:#FCBF29;" d="M331,256.9c0,41.4-33.6,75-75,75v-150C297.4,181.9,331,215.5,331,256.9z"/>
<g>
</g>
<g>
</g>
<g>
</g>
<g>
</g>
<g>
</g>
<g>
</g>
<g>
</g>
<g>
</g>
<g>
</g>
<g>
</g>
<g>
</g>
<g>
</g>
<g>
</g>
<g>
</g>
<g>
</g>
</svg>
