<?xml version="1.0" encoding="utf-8"?>
<!-- Generator: Adobe Illustrator 23.0.2, SVG Export Plug-In . SVG Version: 6.00 Build 0)  -->
<svg version="1.1" id="Layer_1" xmlns="http://www.w3.org/2000/svg" xmlns:xlink="http://www.w3.org/1999/xlink" x="0px" y="0px"
	 viewBox="0 0 1390 1958" style="enable-background:new 0 0 1390 1958;" xml:space="preserve">
<style type="text/css">
	.st0{fill:#FDD1A2;}
	.st1{fill:#E8C095;}
	.st2{fill:#2D3E56;}
	.st3{fill:#EBE5E3;}
	.st4{fill:#FFFFFF;}
	.st5{fill:#88C057;}
	.st6{fill:#E24931;}
	.st7{fill:#BBDCFF;}
	.st8{fill:#E0F4FF;}
	.st9{fill:#61729B;}
	.st10{fill:#47568C;}
	.st11{fill:#9ABADB;}
</style>
<g>
	<path class="st0" d="M1205.1,924.3c-33,43.9-96,52.9-139.9,19.9L896.9,817.8c-43.9-33-52.9-95.9-19.9-139.9
		c33-44,95.9-52.9,139.9-19.9l168.3,126.4C1229.1,817.4,1238.1,880.3,1205.1,924.3z"/>
	<path class="st0" d="M1205.1,1181.6c-33,43.9-96,52.9-139.9,19.9l-168.3-126.4c-43.9-33-52.9-95.9-19.9-139.9s95.9-52.9,139.9-19.9
		l168.3,126.4C1229.1,1074.7,1238.1,1137.7,1205.1,1181.6z"/>
	<path class="st0" d="M1205.1,1439c-33,43.9-96,52.9-139.9,19.9l-168.3-126.4c-43.9-33-52.9-95.9-19.9-139.9
		c33-43.9,95.9-52.9,139.9-19.9l168.3,126.4C1229.1,1332.1,1238.1,1395,1205.1,1439z"/>
	<path class="st1" d="M896.9,817.8c-43.9-33-52.9-95.9-19.9-139.9c33-44,95.9-52.9,139.9-19.9l105.7,79.4V964
		c-20.1-0.5-40.2-6.9-57.4-19.8L896.9,817.8z"/>
	<path class="st1" d="M896.9,1075.1c-43.9-33-52.9-96-19.9-139.9c33-44,95.9-52.9,139.9-19.9l105.7,79.4v226.6
		c-20.1-0.5-40.2-6.9-57.4-19.8L896.9,1075.1z"/>
	<path class="st0" d="M994.4,1479.7v-260.1H181.9v733.3h527.2v-201.6C885.5,1751.4,994.4,1595.4,994.4,1479.7z"/>
	<path class="st1" d="M670.6,1617.3c-138.2,146.1-434.4,90.8-434.4,90.8l208.5-377.4h549.7V1431c0,60.4,0.7,131.9-52.9,186.3H670.6z
		"/>
	<path d="M989.2,5H418.4c-54,0-98.3,44.3-98.3,98.4v1213.4c0,54.2,44.3,98.4,98.3,98.4h570.7c54.1,0,98.2-44.2,98.2-98.4V103.4
		C1087.4,49.3,1043.2,5,989.2,5z"/>
	<rect x="387.7" y="223.8" class="st2" width="632.1" height="972.5"/>
	<path class="st3" d="M728.5,111.5c0,13.7-11,24.8-24.7,24.8c-13.6,0-24.7-11.1-24.7-24.8c0-13.6,11.1-24.8,24.7-24.8
		C717.5,86.8,728.5,97.9,728.5,111.5z"/>
	<path class="st3" d="M642.9,1339.6c-14.9,0-26.9-12.1-26.9-27v-8.1c0-14.9,12-27,26.9-27h121.7c14.9,0,27,12.1,27,27v8.1
		c0,14.9-12.1,27-27,27H642.9z"/>
	<rect x="951.7" y="259.7" class="st4" width="22.7" height="13.6"/>
	<path class="st4" d="M995,262h-4.8v-6.8h-43v22.7h43v-6.8h4.8V262z M987.9,275.7h-38.5v-18.2h38.5V275.7z M992.6,268.9h-2.2v-4.6
		h2.2V268.9z"/>
	<path class="st4" d="M421.3,259.2c-4.9,0-8.9,4-8.9,8.9s4,8.9,8.9,8.9s8.9-4,8.9-8.9C430.3,263.2,426.3,259.2,421.3,259.2z"/>
	<path class="st4" d="M442.2,259.2c-4.9,0-8.9,4-8.9,8.9s4,8.9,8.9,8.9s8.9-4,8.9-8.9S447.1,259.2,442.2,259.2z"/>
	<path class="st4" d="M463,259.2c-4.9,0-8.9,4-8.9,8.9s4,8.9,8.9,8.9s8.9-4,8.9-8.9S467.9,259.2,463,259.2z"/>
	<path class="st4" d="M483.8,259.2c-4.9,0-8.9,4-8.9,8.9s4,8.9,8.9,8.9s8.9-4,8.9-8.9C492.8,263.2,488.8,259.2,483.8,259.2z"/>
	<rect x="703.8" y="964.8" class="st5" width="316" height="232.6"/>
	<polygon class="st4" points="928,1019.2 845.8,1086.7 808.3,1059 793.2,1075.3 839.5,1129.2 847.7,1138.7 856.2,1129.5 
		943.3,1035.4 	"/>
	<rect x="387.7" y="964.8" class="st6" width="316" height="232.6"/>
	<polygon class="st4" points="568.1,1079 602.3,1044.7 579.5,1021.9 545.2,1056.1 511,1021.9 488.2,1044.7 522.4,1079 488.2,1113.2 
		511,1136 545.2,1101.8 579.5,1136 602.3,1113.2 	"/>
	<path class="st0" d="M456.4,1302.1v-133c0-48.7,39.5-88.2,88.1-88.2h321.8v47.9c0,95.7-77.6,173.2-173.2,173.2L456.4,1302.1
		L456.4,1302.1z"/>
	<path class="st0" d="M320.9,674.7v582.5L475.7,1114l155.3,45.9v319.7c0,300.7-353.4,271.7-449.1,271.7c0-120.9,0-750.2,0-750.2
		S172.6,711.6,320.9,674.7z"/>
	<rect x="125" y="1814.8" class="st6" width="641" height="138.1"/>
</g>
<g>
	<path class="st7" d="M609.4,414.7v30.8h-82v-51.3c0-17,13.7-30.8,30.8-30.8C586.4,363.4,609.4,386.4,609.4,414.7z"/>
	<path class="st8" d="M814.4,503.5v210.6H619.6c-17,0-30.8-13.7-30.8-30.8V394.2c0-17-13.7-30.8-30.8-30.8h215.3
		c19.5,0,35.9,13.7,40,32.2c-6.6,1.8-12.5,5.3-17.4,10.3c-10.6,10.6-3.5,4-94.3,94.3v58h58C791.3,526.2,801.5,516.4,814.4,503.5z"/>
	<g>
		<path class="st7" d="M814.4,503.5v210.6h-123V363.4h82c19.5,0,35.9,13.7,40,32.2c-6.6,1.8-12.5,5.3-17.4,10.3
			c-10.6,10.6-3.5,4-94.3,94.3v58h58C791.3,526.2,801.5,516.4,814.4,503.5z"/>
		<path class="st7" d="M855.4,632.1v41c0,22.6-18.5,41-41,41c0,0-27.3,0-61.5,0H619.6c17,0,30.8-13.7,30.8-30.8v-51.3H855.4z"/>
		<path class="st7" d="M629.9,424.9h41v20.5h-41V424.9z"/>
		<path class="st7" d="M629.9,465.9h41v20.5h-41V465.9z"/>
		<path class="st7" d="M629.9,507h71.8v20.5h-71.8V507z"/>
		<path class="st7" d="M629.9,548h71.8v20.5h-71.8V548z"/>
		<path class="st7" d="M629.9,589h143.6v20.5H629.9V589z"/>
	</g>
	<path class="st9" d="M862.3,398.7c-19.9-20.1-53.6-20.1-73.5,0l-15.4,15.4l-10,30.1l-10.5-9.6l-61.5,61.3v72.6H764l82.9-82
		l-9.4-10.5l29.3-10C882.2,446.1,880.7,416.9,862.3,398.7z"/>
	<path class="st10" d="M808.4,465.9l23.5-23.5l-14.5-14.5l-44,44v-57.9l-20.5,20.5v57.9L653.4,592l14.5,14.5l120-120h59l15.4-15.4
		c1.6-1.6,3.1-3.3,4.5-5.1H808.4z"/>
	<path class="st11" d="M855.4,632.1v41c0,22.6-18.5,41-41,41c0,0-27.3,0-61.5,0h-61.5v-82H855.4z"/>
	<path class="st11" d="M691.4,589h82v20.5h-82V589z"/>
</g>
<g>
	<path class="st4" d="M545.3,887.7c2.8,1.7,6.9,3.2,11.2,3.2c6.4,0,10.2-3.4,10.2-8.3c0-4.5-2.6-7.1-9.1-9.6
		c-7.9-2.8-12.8-6.9-12.8-13.8c0-7.6,6.3-13.2,15.7-13.2c5,0,8.6,1.2,10.7,2.4l-1.7,5.1c-1.6-0.9-4.8-2.3-9.2-2.3
		c-6.6,0-9.1,4-9.1,7.3c0,4.5,3,6.8,9.6,9.4c8.2,3.2,12.4,7.1,12.4,14.3c0,7.5-5.5,14-17,14c-4.7,0-9.8-1.4-12.4-3.1L545.3,887.7z"
		/>
	<path class="st4" d="M588.5,850.7c0.1,2.2-1.5,3.9-4,3.9c-2.2,0-3.8-1.7-3.8-3.9c0-2.2,1.7-4,4-4
		C587,846.8,588.5,848.5,588.5,850.7z M581.5,895.4v-34.9h6.3v34.9H581.5z"/>
	<path class="st4" d="M628.3,860.5c-0.1,2.5-0.3,5.3-0.3,9.6v20.2c0,8-1.6,12.9-5,15.9c-3.4,3.2-8.3,4.2-12.7,4.2
		c-4.2,0-8.8-1-11.6-2.9l1.6-4.8c2.3,1.4,5.9,2.7,10.2,2.7c6.5,0,11.2-3.4,11.2-12.2v-3.9h-0.1c-1.9,3.2-5.7,5.8-11.1,5.8
		c-8.6,0-14.8-7.3-14.8-17c0-11.8,7.7-18.5,15.7-18.5c6,0,9.4,3.2,10.9,6h0.1l0.3-5.3H628.3z M621.8,874.3c0-1.1-0.1-2-0.4-2.9
		c-1.2-3.7-4.2-6.7-8.9-6.7c-6,0-10.4,5.1-10.4,13.2c0,6.8,3.5,12.5,10.3,12.5c3.9,0,7.4-2.4,8.8-6.5c0.4-1.1,0.5-2.3,0.5-3.4V874.3
		z"/>
	<path class="st4" d="M638.1,870c0-3.6-0.1-6.6-0.3-9.4h5.6l0.4,5.8h0.1c1.7-3.3,5.8-6.6,11.5-6.6c4.8,0,12.3,2.9,12.3,14.8v20.8
		h-6.3v-20.1c0-5.6-2.1-10.3-8.1-10.3c-4.2,0-7.4,3-8.5,6.5c-0.3,0.8-0.4,1.9-0.4,3v21h-6.3V870z"/>
	<path class="st4" d="M718.7,872.6h-18.9v17.5h21v5.3h-27.3v-48.5h26.2v5.3h-19.9v15.3h18.9V872.6z"/>
	<path class="st4" d="M728.8,870c0-3.6-0.1-6.6-0.3-9.4h5.5l0.3,5.6h0.2c1.9-3.3,5.2-6.4,10.9-6.4c4.8,0,8.4,2.9,9.9,7h0.1
		c1.1-1.9,2.4-3.5,3.9-4.5c2.1-1.6,4.4-2.4,7.7-2.4c4.6,0,11.4,3,11.4,15.1v20.5h-6.2v-19.7c0-6.7-2.4-10.7-7.6-10.7
		c-3.6,0-6.4,2.7-7.5,5.8c-0.3,0.9-0.5,2-0.5,3.2v21.5h-6.2v-20.9c0-5.5-2.4-9.6-7.3-9.6c-4,0-6.8,3.2-7.8,6.3
		c-0.4,0.9-0.5,2-0.5,3.1v21h-6.2V870z"/>
	<path class="st4" d="M808.1,895.4l-0.5-4.4h-0.2c-1.9,2.7-5.7,5.2-10.7,5.2c-7.1,0-10.7-5-10.7-10c0-8.4,7.5-13,21-13v-0.7
		c0-2.9-0.8-8.1-7.9-8.1c-3.2,0-6.6,1-9.1,2.6l-1.4-4.2c2.9-1.9,7.1-3.1,11.4-3.1c10.7,0,13.2,7.3,13.2,14.3v13c0,3,0.1,6,0.6,8.4
		H808.1z M807.2,877.6c-6.9-0.1-14.8,1.1-14.8,7.8c0,4.1,2.7,6,6,6c4.5,0,7.4-2.9,8.4-5.8c0.2-0.6,0.4-1.4,0.4-2V877.6z"/>
	<path class="st4" d="M830.6,850.7c0.1,2.2-1.5,3.9-4,3.9c-2.2,0-3.8-1.7-3.8-3.9c0-2.2,1.7-4,4-4
		C829.1,846.8,830.6,848.5,830.6,850.7z M823.5,895.4v-34.9h6.3v34.9H823.5z"/>
	<path class="st4" d="M840.4,844.2h6.3v51.1h-6.3V844.2z"/>
	<path class="st4" d="M862.2,881.6l-0.1-1.9c-0.4-3.9,0.9-8.1,4.5-12.5c3.2-3.8,5-6.6,5-9.9c0-3.7-2.3-6.1-6.8-6.2
		c-2.6,0-5.5,0.9-7.3,2.2l-1.7-4.5c2.4-1.7,6.5-2.9,10.3-2.9c8.3,0,12,5.1,12,10.6c0,4.9-2.7,8.4-6.2,12.5
		c-3.2,3.7-4.3,6.9-4.1,10.6l0.1,1.9H862.2z M860.7,891.7c0-2.7,1.8-4.5,4.3-4.5c2.5,0,4.2,1.9,4.2,4.5c0,2.5-1.7,4.5-4.3,4.5
		C862.4,896.2,860.7,894.2,860.7,891.7z"/>
</g>
</svg>
