<?xml version="1.0" encoding="utf-8"?>
<!-- Generator: Adobe Illustrator 23.0.2, SVG Export Plug-In . SVG Version: 6.00 Build 0)  -->
<svg version="1.1" id="Layer_1" xmlns="http://www.w3.org/2000/svg" xmlns:xlink="http://www.w3.org/1999/xlink" x="0px" y="0px"
	 viewBox="0 0 1390 1958" style="enable-background:new 0 0 1390 1958;" xml:space="preserve">
<style type="text/css">
	.st0{fill:#FDD1A2;}
	.st1{fill:#E8C095;}
	.st2{fill:#2D3E56;}
	.st3{fill:#EBE5E3;}
	.st4{fill:#FFFFFF;}
	.st5{fill:#0F597A;}
	.st6{fill:#0D415E;}
	.st7{fill:#0E91AF;}
	.st8{fill:#00233F;}
	.st9{fill:#057091;}
	.st10{fill:#1AB9D3;}
	.st11{fill:#0A3856;}
	.st12{fill:#E29524;}
	.st13{fill:#E07127;}
	.st14{fill:#39B54A;}
	.st15{fill:url(#SVGID_1_);}
	.st16{fill:#88C057;}
	.st17{fill:#E24931;}
</style>
<g>
	<path class="st0" d="M1205.1,924.3c-33,43.9-96,52.9-139.9,19.9L896.9,817.8c-43.9-33-52.9-95.9-19.9-139.9
		c33-44,95.9-52.9,139.9-19.9l168.3,126.4C1229.1,817.4,1238.1,880.3,1205.1,924.3z"/>
	<path class="st0" d="M1205.1,1181.6c-33,43.9-96,52.9-139.9,19.9l-168.3-126.4c-43.9-33-52.9-95.9-19.9-139.9
		c33-44,95.9-52.9,139.9-19.9l168.3,126.4C1229.1,1074.7,1238.1,1137.7,1205.1,1181.6z"/>
	<path class="st0" d="M1205.1,1439c-33,43.9-96,52.9-139.9,19.9l-168.3-126.4c-43.9-33-52.9-95.9-19.9-139.9
		c33-43.9,95.9-52.9,139.9-19.9l168.3,126.4C1229.1,1332.1,1238.1,1395,1205.1,1439z"/>
	<path class="st1" d="M896.9,817.8c-43.9-33-52.9-95.9-19.9-139.9c33-44,95.9-52.9,139.9-19.9l105.7,79.4V964
		c-20.1-0.5-40.2-6.9-57.4-19.8L896.9,817.8z"/>
	<path class="st1" d="M896.9,1075.1c-43.9-33-52.9-96-19.9-139.9c33-44,95.9-52.9,139.9-19.9l105.7,79.4v226.6
		c-20.1-0.5-40.2-6.9-57.4-19.8L896.9,1075.1z"/>
	<path class="st0" d="M994.4,1479.7v-260.1H181.9v733.3h527.2v-201.6C885.5,1751.4,994.4,1595.4,994.4,1479.7z"/>
	<path class="st1" d="M670.6,1617.3c-138.2,146.1-434.4,90.8-434.4,90.8l208.5-377.4h549.7V1431c0,60.4,0.7,131.9-52.9,186.3H670.6z
		"/>
	<path d="M989.2,5H418.4c-54,0-98.3,44.3-98.3,98.4v1213.4c0,54.2,44.3,98.4,98.3,98.4h570.7c54.1,0,98.2-44.2,98.2-98.4V103.4
		C1087.4,49.3,1043.2,5,989.2,5z"/>
	<rect x="387.7" y="223.8" class="st2" width="632.1" height="972.5"/>
	<path class="st3" d="M728.5,111.5c0,13.7-11,24.8-24.7,24.8c-13.6,0-24.7-11.1-24.7-24.8c0-13.6,11.1-24.8,24.7-24.8
		C717.5,86.8,728.5,97.9,728.5,111.5z"/>
	<path class="st3" d="M642.9,1339.6c-14.9,0-26.9-12.1-26.9-27v-8.1c0-14.9,12-27,26.9-27h121.7c14.9,0,27,12.1,27,27v8.1
		c0,14.9-12.1,27-27,27H642.9z"/>
	<rect x="951.7" y="259.7" class="st4" width="22.7" height="13.6"/>
	<path class="st4" d="M995,262h-4.8v-6.8h-43v22.7h43v-6.8h4.8V262z M987.9,275.7h-38.5v-18.2h38.5V275.7z M992.6,268.9h-2.2v-4.6
		h2.2V268.9z"/>
	<path class="st4" d="M421.3,259.2c-4.9,0-8.9,4-8.9,8.9c0,4.9,4,8.9,8.9,8.9c4.9,0,8.9-4,8.9-8.9
		C430.3,263.2,426.3,259.2,421.3,259.2z"/>
	<path class="st4" d="M442.2,259.2c-4.9,0-8.9,4-8.9,8.9c0,4.9,4,8.9,8.9,8.9c4.9,0,8.9-4,8.9-8.9
		C451.1,263.2,447.1,259.2,442.2,259.2z"/>
	<path class="st4" d="M463,259.2c-4.9,0-8.9,4-8.9,8.9c0,4.9,4,8.9,8.9,8.9c4.9,0,8.9-4,8.9-8.9C471.9,263.2,467.9,259.2,463,259.2z
		"/>
	<path class="st4" d="M483.8,259.2c-4.9,0-8.9,4-8.9,8.9c0,4.9,4,8.9,8.9,8.9c4.9,0,8.9-4,8.9-8.9
		C492.8,263.2,488.8,259.2,483.8,259.2z"/>
	<path class="st5" d="M823.6,679.8L823.6,679.8c19.6-11.9,37.4-24.3,37.4-45.9c0.5-37.3-31.1-45.4-40.7-77.3v-1.1v1.1L823.6,679.8z"
		/>
	<path class="st6" d="M830.8,678.1L830.8,678.1c1.9-25.9,1.4-48.1-14.4-60c-27.8-20.5-49.3,3.8-80-1.1v0.5L830.8,678.1z"/>
	<path class="st5" d="M680.9,532.2c9.6,9.2,28.3-1.1-17.7,62.7c-46,63.8-91,108.1-100.6,98.9c-9.6-9.2,12.5-73.5,65.1-131.3
		C679.9,505.2,671.3,523.5,680.9,532.2z"/>
	<path class="st7" d="M685.7,519.2c-12,15.7-35.4,15.1-52.2-1.1c-16.8-16.2-26.3-51.9-8.6-58.4c-8.6,3.2,39.3-11.9,56,4.3
		C697.7,480.8,697.7,503.5,685.7,519.2z"/>
	<path class="st7" d="M711.1,598.1c-15.8-30.8-21.1-70.8-17.2-101.1c-67.5-13.5-55.1-24.9-78.5,73c-13.9,56.8-9.1,123.2,53.6,141.1
		c54.1,15.1,158-7.6,180.1-50.8C804,686.8,742.7,659.2,711.1,598.1z"/>
	<path class="st8" d="M629.2,462.5c0,5.4-3.8,10.3-8.1,10.3c-4.3,0-8.1-4.3-8.1-10.3c0-5.4,3.8-2.7,8.1-2.7
		C625.3,460.3,629.2,457.1,629.2,462.5z"/>
	<path class="st9" d="M731.2,715.4L645,618.1l-32.1,36.2c7.2,26.5,23.9,48.1,56,57.3C686.2,716.5,708.2,717.6,731.2,715.4z"/>
	<path class="st7" d="M648.3,601.9c12.5,7,29.7-3.8,9.6,42.2c-20.1,45.9-46.5,77.3-58.9,70.3c-12.5-7-6.2-49.7,13.9-95.7
		C633,572.7,635.9,594.9,648.3,601.9z"/>
	<path class="st5" d="M629.2,476c1.1,0,1.9,1,1.9,2.2c0,1.2-0.9,2.2-1.9,2.2c-1.1,0-1.9-1-1.9-2.2C627.3,476.9,628.1,476,629.2,476z
		"/>
	<path class="st5" d="M635.9,483c1.1,0,1.9,1,1.9,2.2c0,1.2-0.9,2.2-1.9,2.2c-1.1,0-1.9-1-1.9-2.2C634,484,634.8,483,635.9,483z"/>
	<path class="st5" d="M626.3,486.2c1.1,0,1.9,1,1.9,2.2c0,1.2-0.9,2.2-1.9,2.2c-1.1,0-1.9-1-1.9-2.2
		C624.4,487.2,625.2,486.2,626.3,486.2z"/>
	<path class="st10" d="M612.1,637.7c8.7-20.8,18.9-35.9,22.7-33.9c3.8,2-0.2,20.5-8.9,41.3c-8.7,20.8-18.9,35.9-22.7,33.9
		C599.4,676.9,603.4,658.5,612.1,637.7z"/>
	<path class="st10" d="M624.5,548.4c3.4-16,8-28.4,10.3-27.8c2.3,0.6,1.5,14.1-1.9,30c-3.4,16-8,28.4-10.3,27.8
		C620.3,577.8,621.1,564.4,624.5,548.4z"/>
	<path class="st10" d="M615.8,592.2c0.9-4.4,3.3-7.4,5.4-6.9c2.1,0.6,3,4.5,2.1,8.9c-0.9,4.4-3.3,7.4-5.4,6.9
		S614.9,596.6,615.8,592.2z"/>
	<path class="st10" d="M647.4,460.3c5.6,0,10.1,1.2,10.1,2.7c0,1.5-4.5,2.7-10.1,2.7c-5.6,0-10.1-1.2-10.1-2.7
		C637.3,461.5,641.8,460.3,647.4,460.3z"/>
	<path class="st10" d="M649.4,482.7c-0.4-2.4,3.8-5.1,9.3-6.2c5.5-1.1,10.2,0,10.6,2.4c0.4,2.4-3.8,5.1-9.3,6.2
		C654.5,486.1,649.8,485.1,649.4,482.7z"/>
	<path class="st8" d="M657.9,467.9c2.6,0,4.8,2.4,4.8,5.4s-2.1,5.4-4.8,5.4c-2.6,0-4.8-2.4-4.8-5.4S655.3,467.9,657.9,467.9z"/>
	<path class="st11" d="M657,468.4c1.6,0,2.9,1.4,2.9,3.2c0,1.8-1.3,3.2-2.9,3.2c-1.6,0-2.9-1.5-2.9-3.2
		C654.1,469.9,655.4,468.4,657,468.4z"/>
	<path class="st10" d="M679.5,580.8c2.9,0,5.3,2.7,5.3,5.9c0,3.3-2.4,5.9-5.3,5.9c-2.9,0-5.3-2.7-5.3-5.9
		C674.2,583.5,676.6,580.8,679.5,580.8z"/>
	<path class="st10" d="M675.2,569.5c1.6,0,2.9,1.5,2.9,3.2c0,1.8-1.3,3.2-2.9,3.2s-2.9-1.4-2.9-3.2
		C672.3,570.9,673.6,569.5,675.2,569.5z"/>
	<path class="st10" d="M671.3,561.4c0.5,0,1,0.5,1,1.1c0,0.6-0.4,1.1-1,1.1c-0.5,0-1-0.5-1-1.1C670.4,561.9,670.8,561.4,671.3,561.4
		z"/>
	<path class="st9" d="M680.4,614.9c2.1,0,3.8,1.9,3.8,4.3s-1.7,4.3-3.8,4.3s-3.8-1.9-3.8-4.3S678.3,614.9,680.4,614.9z"/>
	<path class="st9" d="M693.3,628.4c1.1,0,1.9,1,1.9,2.2c0,1.2-0.9,2.2-1.9,2.2c-1.1,0-1.9-1-1.9-2.2
		C691.4,629.4,692.3,628.4,693.3,628.4z"/>
	<ellipse class="st9" cx="683.8" cy="565.2" rx="1.9" ry="2.2"/>
	<polygon class="st12" points="695.7,533.8 620.6,533.8 625.3,517.6 693.8,517.6 	"/>
	<polyline class="st13" points="628.7,517.6 693.8,517.6 695.7,533.8 	"/>
	<polygon class="st14" points="604.6,417.2 601,420.4 609.7,430.1 609.7,430.1 609.7,430.1 625.3,414.3 622.5,410.6 609.9,421 	"/>
	
		<radialGradient id="SVGID_1_" cx="-1.533243e-06" cy="1.533257e-06" r="1" gradientTransform="matrix(39.8079 0 0 -39.8075 612.1785 418.9241)" gradientUnits="userSpaceOnUse">
		<stop  offset="0" style="stop-color:#FFFFFF"/>
		<stop  offset="8.436364e-02" style="stop-color:#FFEDD9"/>
		<stop  offset="0.2078" style="stop-color:#FFD5A8"/>
		<stop  offset="0.3344" style="stop-color:#FFC17D"/>
		<stop  offset="0.4622" style="stop-color:#FFB05B"/>
		<stop  offset="0.5914" style="stop-color:#FFA340"/>
		<stop  offset="0.7226" style="stop-color:#FF9A2D"/>
		<stop  offset="0.8571" style="stop-color:#FF9522"/>
		<stop  offset="1" style="stop-color:#FF931E"/>
	</radialGradient>
	<path class="st15" d="M612.2,379.1c-22,0-39.8,17.8-39.8,39.8c0,22,17.8,39.8,39.8,39.8c22,0,39.8-17.8,39.8-39.8
		C652,396.9,634.2,379.1,612.2,379.1z M612.2,440.9c-20.5,0-21.9-34.7-21.9-34.7l21.9-9.3h0l21.9,9.3
		C634.1,406.3,632.7,440.9,612.2,440.9z"/>
	<g>
		<path class="st4" d="M532.1,880.1l-5,15.3h-6.5l16.5-48.6h7.6l16.6,48.6h-6.7l-5.2-15.3H532.1z M548,875.2l-4.8-14
			c-1.1-3.2-1.8-6.1-2.5-8.9h-0.1c-0.7,2.9-1.5,5.8-2.5,8.8l-4.8,14.1H548z"/>
	</g>
	<g>
		<path class="st4" d="M568,844.2h6.3v51.2H568V844.2z"/>
		<path class="st4" d="M585,844.2h6.3v51.2H585V844.2z"/>
	</g>
	<g>
		<path class="st4" d="M633.6,877.7c0,12.9-8.9,18.5-17.4,18.5c-9.4,0-16.7-6.9-16.7-18c0-11.7,7.6-18.5,17.3-18.5
			C626.8,859.7,633.6,867,633.6,877.7z M605.9,878c0,7.6,4.4,13.4,10.6,13.4c6.1,0,10.6-5.7,10.6-13.6c0-5.9-3-13.4-10.5-13.4
			C609.2,864.5,605.9,871.4,605.9,878z"/>
	</g>
	<g>
		<path class="st4" d="M643.7,860.5l4.6,17.7c1,3.9,1.9,7.5,2.6,11.1h0.2c0.8-3.5,1.9-7.3,3.1-11l5.7-17.8h5.3l5.4,17.5
			c1.3,4.2,2.3,7.9,3.1,11.4h0.2c0.6-3.5,1.5-7.2,2.7-11.3l5-17.5h6.3l-11.3,34.9h-5.8l-5.3-16.7c-1.2-3.9-2.2-7.4-3.1-11.5h-0.1
			c-0.9,4.2-1.9,7.8-3.2,11.5l-5.6,16.6h-5.8l-10.5-34.9H643.7z"/>
	</g>
	<g>
		<path class="st4" d="M709.8,846.8h6.3v43.3h20.8v5.3h-27V846.8z"/>
	</g>
	<g>
		<path class="st4" d="M774.3,877.7c0,12.9-8.9,18.5-17.4,18.5c-9.4,0-16.7-6.9-16.7-18c0-11.7,7.6-18.5,17.3-18.5
			C767.5,859.7,774.3,867,774.3,877.7z M746.6,878c0,7.6,4.4,13.4,10.6,13.4c6.1,0,10.6-5.7,10.6-13.6c0-5.9-3-13.4-10.5-13.4
			C749.8,864.5,746.6,871.4,746.6,878z"/>
	</g>
	<g>
		<path class="st4" d="M812.4,860.5c-0.1,2.5-0.3,5.3-0.3,9.6v20.3c0,8-1.6,12.9-5,15.9c-3.4,3.2-8.3,4.2-12.7,4.2
			c-4.2,0-8.8-1-11.6-2.9l1.6-4.8c2.3,1.4,5.9,2.7,10.2,2.7c6.5,0,11.3-3.4,11.3-12.2v-3.9h-0.1c-1.9,3.2-5.7,5.8-11.1,5.8
			c-8.7,0-14.9-7.4-14.9-17c0-11.8,7.7-18.5,15.7-18.5c6.1,0,9.4,3.2,10.9,6.1h0.1l0.3-5.3H812.4z M805.8,874.3c0-1.1-0.1-2-0.4-2.9
			c-1.2-3.7-4.3-6.7-8.9-6.7c-6.1,0-10.4,5.1-10.4,13.2c0,6.9,3.5,12.6,10.3,12.6c3.9,0,7.4-2.5,8.8-6.5c0.4-1.1,0.5-2.3,0.5-3.4
			V874.3z"/>
	</g>
	<g>
		<path class="st4" d="M829.2,850.7c0.1,2.2-1.5,3.9-4,3.9c-2.2,0-3.8-1.7-3.8-3.9c0-2.2,1.7-4,4-4
			C827.7,846.7,829.2,848.4,829.2,850.7z M822.2,895.4v-34.9h6.3v34.9H822.2z"/>
		<path class="st4" d="M839,869.9c0-3.6-0.1-6.6-0.3-9.4h5.6l0.4,5.8h0.1c1.7-3.3,5.8-6.6,11.5-6.6c4.8,0,12.3,2.9,12.3,14.9v20.8
			h-6.3v-20.1c0-5.6-2.1-10.3-8.1-10.3c-4.2,0-7.4,3-8.5,6.5c-0.3,0.8-0.4,1.9-0.4,3v21H839V869.9z"/>
		<path class="st4" d="M884,881.6l-0.1-1.9c-0.4-3.9,0.9-8.2,4.5-12.5c3.2-3.8,5-6.6,5-9.9c0-3.7-2.3-6.1-6.9-6.2
			c-2.6,0-5.5,0.9-7.3,2.2l-1.7-4.5c2.4-1.7,6.5-2.9,10.3-2.9c8.3,0,12,5.1,12,10.6c0,4.9-2.7,8.4-6.2,12.6
			c-3.2,3.8-4.3,6.9-4.1,10.6l0.1,1.9H884z M882.4,891.7c0-2.7,1.8-4.5,4.3-4.5s4.3,1.9,4.3,4.5c0,2.5-1.7,4.5-4.3,4.5
			C884.1,896.2,882.4,894.2,882.4,891.7z"/>
	</g>
	<rect x="703.8" y="964.8" class="st16" width="316" height="232.6"/>
	<polygon class="st4" points="928,1019.2 845.8,1086.7 808.3,1059 793.2,1075.3 839.5,1129.2 847.7,1138.7 856.2,1129.5 
		943.3,1035.4 	"/>
	<rect x="387.7" y="964.8" class="st17" width="316" height="232.6"/>
	<polygon class="st4" points="568.1,1079 602.3,1044.7 579.5,1021.9 545.2,1056.1 511,1021.9 488.2,1044.7 522.4,1079 488.2,1113.2 
		511,1136 545.2,1101.8 579.5,1136 602.3,1113.2 	"/>
	<path class="st0" d="M456.4,1302.1v-133c0-48.7,39.5-88.2,88.1-88.2h321.8v47.9c0,95.7-77.6,173.2-173.2,173.2H456.4z"/>
	<path class="st0" d="M320.9,674.7v582.5l154.8-143.2l155.3,45.9v319.7c0,300.7-353.4,271.7-449.1,271.7c0-120.9,0-750.2,0-750.2
		S172.6,711.6,320.9,674.7z"/>
	<rect x="125" y="1814.8" class="st17" width="641" height="138.1"/>
</g>
<g>
</g>
<g>
</g>
<g>
</g>
<g>
</g>
<g>
</g>
<g>
</g>
<g>
</g>
<g>
</g>
<g>
</g>
<g>
</g>
<g>
</g>
<g>
</g>
<g>
</g>
<g>
</g>
<g>
</g>
</svg>
